<svg width="23" height="23" viewBox="0 0 23 23" fill="none" xmlns="http://www.w3.org/2000/svg">
    <path d="M14.6729 4.37457C13.9983 3.68783 13.1942 3.14147 12.3072 2.76706C11.4201 2.39265 10.4676 2.1976 9.50467 2.19318C8.54175 2.18875 7.58749 2.37505 6.69701 2.7413C5.80653 3.10755 4.99748 3.64649 4.31658 4.32701C3.63568 5.00753 3.09644 5.81613 2.72998 6.70611C2.36353 7.59609 2.17713 8.54982 2.18155 9.51221C2.18598 10.4746 2.38114 11.4266 2.75576 12.3131C3.13038 13.1997 3.67704 14.0033 4.36417 14.6776C5.73548 16.0232 7.58295 16.7731 9.50467 16.7643C11.4264 16.7555 13.2669 15.9886 14.6258 14.6304C15.9846 13.2723 16.752 11.4329 16.7608 9.51221C16.7696 7.59155 16.0193 5.74511 14.6729 4.37457ZM2.77838 2.78967C4.49742 1.07201 6.80807 0.0755736 9.23781 0.00412513C11.6676 -0.0673233 14.0328 0.791613 15.8499 2.40529C17.6671 4.01896 18.7987 6.26546 19.0135 8.68539C19.2284 11.1053 18.5101 13.5159 17.0056 15.4241L23 21.4151L21.4142 23L15.4198 17.009C13.5099 18.5071 11.1001 19.2205 8.68198 19.0037C6.26383 18.7869 4.01954 17.6562 2.40691 15.8423C0.794289 14.0284 -0.0651699 11.6679 0.00385793 9.24238C0.0728858 6.81686 1.0652 4.50903 2.77838 2.78967Z"
          fill="white"/>
</svg>
