<svg width="24" height="23" viewBox="0 0 24 23" fill="none" xmlns="http://www.w3.org/2000/svg">
<path d="M15.1303 4.55596C14.4655 3.89126 13.6732 3.36244 12.799 3.00004C11.9248 2.63764 10.9862 2.44885 10.0373 2.44457C9.08835 2.44029 8.14798 2.62061 7.27046 2.9751C6.39294 3.3296 5.59566 3.85125 4.92467 4.50993C4.25368 5.16861 3.72228 5.95126 3.36116 6.81268C3.00003 7.67411 2.81635 8.59723 2.82071 9.52873C2.82507 10.4602 3.01739 11.3817 3.38656 12.2398C3.75573 13.0979 4.29443 13.8757 4.97156 14.5283C6.32292 15.8307 8.1435 16.5566 10.0373 16.5481C11.931 16.5395 13.7447 15.7973 15.0838 14.4827C16.423 13.1682 17.1791 11.3877 17.1878 9.52873C17.1965 7.66971 16.4571 5.88253 15.1303 4.55596ZM3.40885 3.02192C5.10288 1.35938 7.3799 0.394926 9.77429 0.32577C12.1687 0.256615 14.4995 1.08799 16.2902 2.64988C18.0809 4.21177 19.1961 6.38618 19.4078 8.72845C19.6195 11.0707 18.9117 13.4039 17.4291 15.2509L23.3362 21.0496L21.7735 22.5837L15.8664 16.7849C13.9842 18.2349 11.6095 18.9254 9.22654 18.7156C6.84358 18.5057 4.63195 17.4114 3.04279 15.6557C1.45363 13.9 0.606677 11.6152 0.6747 9.26756C0.742724 6.91987 1.7206 4.68611 3.40885 3.02192Z" fill="black"/>
</svg>
