<svg width="18" height="20" viewBox="0 0 18 20" fill="none" xmlns="http://www.w3.org/2000/svg">
<path d="M13.0179 3C11.3585 3 9.90562 3.78644 9 5.11576C8.09437 3.78644 6.64152 3 4.98214 3C3.66125 3.00164 2.39489 3.58067 1.46088 4.61005C0.52687 5.63944 0.00148881 7.03511 0 8.49088C0 14.6903 8.34027 19.7082 8.69545 19.9154C8.78906 19.9709 8.8937 20 9 20C9.1063 20 9.21094 19.9709 9.30455 19.9154C9.65973 19.7082 18 14.6903 18 8.49088C17.9985 7.03511 17.4731 5.63944 16.5391 4.61005C15.6051 3.58067 14.3387 3.00164 13.0179 3ZM9 18.4807C7.53268 17.5384 1.28571 13.2458 1.28571 8.49088C1.28699 7.41085 1.67684 6.37546 2.36978 5.61176C3.06272 4.84807 4.00218 4.41841 4.98214 4.417C6.54509 4.417 7.85732 5.33451 8.40536 6.80819C8.45379 6.93814 8.53618 7.04928 8.64206 7.1275C8.74794 7.20572 8.87253 7.24748 9 7.24748C9.12747 7.24748 9.25206 7.20572 9.35794 7.1275C9.46382 7.04928 9.54621 6.93814 9.59464 6.80819C10.1427 5.33185 11.4549 4.417 13.0179 4.417C13.9978 4.41841 14.9373 4.84807 15.6302 5.61176C16.3232 6.37546 16.713 7.41085 16.7143 8.49088C16.7143 13.2387 10.4657 17.5375 9 18.4807Z" fill="black"/>
</svg>
