<svg width="18" height="20" viewBox="0 0 26 32" fill="none" xmlns="http://www.w3.org/2000/svg">
    <path fill-rule="evenodd" clip-rule="evenodd"
          d="M16.1452 1.65932C17.2361 0.588559 18.7049 -0.00771976 20.2323 7.54798e-05C21.7598 0.00787072 23.2224 0.61911 24.3024 1.70095C25.3824 2.7828 25.9924 4.24781 25.9999 5.77761C26.0074 7.30741 25.4118 8.77836 24.3425 9.87078L13.0427 21.188C12.4059 21.8258 12.016 22.2163 11.5845 22.5546C11.0735 22.9533 10.5207 23.2951 9.9358 23.5739C9.43881 23.8109 8.91653 23.9853 8.06242 24.2699L4.08652 25.5977L3.13123 25.9167C2.71215 26.0569 2.26234 26.0774 1.83227 25.9758C1.4022 25.8743 1.00888 25.6548 0.696443 25.3419C0.384004 25.0289 0.164802 24.635 0.0634273 24.2043C-0.0379472 23.7735 -0.0174838 23.323 0.122522 22.9033L1.76675 17.9645C2.05095 17.1091 2.22505 16.586 2.46164 16.0882C2.74055 15.5029 3.08232 14.9497 3.48091 14.4385C3.81868 14.0048 4.20705 13.6144 4.84391 12.978L16.1452 1.65932ZM4.03295 23.258L2.77709 21.9987L3.86035 18.7424C4.1758 17.7946 4.30674 17.4086 4.47637 17.051C4.68469 16.6113 4.94211 16.197 5.23971 15.814C5.48374 15.5011 5.76944 15.212 6.47474 14.5041L15.2405 5.72631C15.6959 6.86599 16.379 7.90052 17.2478 8.76648C18.1125 9.63606 19.1455 10.3196 20.2833 10.7754L11.5175 19.5532C10.8107 20.261 10.5236 20.5472 10.2111 20.7901C9.828 21.089 9.41394 21.3458 8.97605 21.5561C8.61893 21.726 8.23205 21.8571 7.28569 22.1731L4.03444 23.2595L4.03295 23.258ZM22.0614 8.99301C21.8322 8.94227 21.6061 8.87808 21.3844 8.80076C20.4202 8.46316 19.5451 7.91079 18.825 7.18529C18.1009 6.46391 17.5494 5.58753 17.2121 4.62201C17.1344 4.39997 17.0698 4.17355 17.0186 3.94393L17.7224 3.24051C18.3946 2.589 19.2956 2.22818 20.231 2.23586C21.1664 2.24354 22.0613 2.61911 22.7227 3.28158C23.3842 3.94405 23.7592 4.84034 23.7668 5.77718C23.7745 6.71402 23.4143 7.61635 22.7637 8.28959L22.0614 8.99301ZM0.000507071 30.8823C0.000507071 30.5859 0.118084 30.3016 0.327373 30.0919C0.536662 29.8823 0.820519 29.7646 1.1165 29.7646H24.9243V32H1.1165C0.820519 32 0.536662 31.8822 0.327373 31.6726C0.118084 31.463 0.000507071 31.1787 0.000507071 30.8823Z"
          fill="#37E9DE"/>
</svg>
