<svg width="17" height="17" viewBox="0 0 34 35" fill="none" xmlns="http://www.w3.org/2000/svg">
    <path d="M1.92376 19.2869C1.44953 19.2869 0.99472 19.0985 0.659396 18.7632C0.324072 18.4279 0.135696 17.9731 0.135709 17.4989C0.135724 17.0246 0.324127 16.5698 0.659471 16.2345C0.994815 15.8991 1.44963 15.7107 1.92387 15.7107L15.282 15.7124L15.2845 2.35422C15.2846 1.87999 15.473 1.42517 15.8083 1.08983C16.1437 0.754483 16.5985 0.566081 17.0727 0.566066C17.5469 0.566052 18.0017 0.754428 18.3371 1.08975C18.6724 1.42508 18.8608 1.87988 18.8608 2.35412L18.8583 15.7123L32.2164 15.714C32.6907 15.714 33.1455 15.9024 33.4808 16.2377C33.8161 16.573 34.0045 17.0278 34.0045 17.5021C34.0045 17.9763 33.8161 18.4311 33.4807 18.7664C33.1454 19.1018 32.6906 19.2902 32.2163 19.2902L18.8581 19.2885L18.8588 32.6498C18.8588 33.1241 18.6704 33.5789 18.335 33.9142C17.9997 34.2496 17.5449 34.438 17.0706 34.438C16.5964 34.438 16.1416 34.2496 15.8063 33.9143C15.471 33.579 15.2826 33.1242 15.2826 32.6499L15.2819 19.2886L1.92376 19.2869Z"
          fill="white"/>
</svg>
