<svg width="21" height="20" viewBox="0 0 19 19" fill="none" xmlns="http://www.w3.org/2000/svg">
<path d="M3.18012 14.1241C3.30338 14.2479 3.39783 14.3973 3.45674 14.5617C3.51565 14.7261 3.53757 14.9015 3.52094 15.0753C3.43748 15.8799 3.27925 16.675 3.04831 17.4503C4.70487 17.0667 5.71663 16.6226 6.17619 16.3899C6.43685 16.2579 6.73703 16.2266 7.01931 16.302C7.82852 16.5177 8.66253 16.6263 9.5 16.625C14.2452 16.625 17.8125 13.2917 17.8125 9.5C17.8125 5.7095 14.2452 2.375 9.5 2.375C4.75475 2.375 1.1875 5.7095 1.1875 9.5C1.1875 11.2432 1.92019 12.8606 3.18012 14.1241ZM2.59469 18.7613C2.31333 18.8171 2.03106 18.8682 1.748 18.9145C1.5105 18.9525 1.33 18.7055 1.42381 18.4846C1.52925 18.236 1.6259 17.9837 1.71356 17.7282L1.71712 17.7163C2.01163 16.8613 2.2515 15.8781 2.33938 14.9625C0.882313 13.5019 0 11.59 0 9.5C0 4.90913 4.25362 1.1875 9.5 1.1875C14.7464 1.1875 19 4.90913 19 9.5C19 14.0909 14.7464 17.8125 9.5 17.8125C8.55909 17.8138 7.62207 17.6916 6.71294 17.4491C6.09544 17.7614 4.76662 18.3302 2.59469 18.7613Z" fill="#888888"/>
</svg>
