<svg width="35" height="35" viewBox="0 0 35 35" fill="none" xmlns="http://www.w3.org/2000/svg">
<path d="M28.5045 26.183C28.8127 26.4912 28.9859 26.9092 28.9859 27.3451C28.9859 27.781 28.8127 28.199 28.5045 28.5072C28.1963 28.8154 27.7783 28.9886 27.3424 28.9886C26.9065 28.9886 26.4885 28.8154 26.1803 28.5072L17.5 19.8242L8.81699 28.5045C8.50878 28.8127 8.09076 28.9858 7.65488 28.9858C7.21901 28.9858 6.80099 28.8127 6.49278 28.5045C6.18456 28.1962 6.01141 27.7782 6.01141 27.3423C6.01141 26.9065 6.18456 26.4885 6.49278 26.1802L15.1758 17.5L6.49551 8.81696C6.1873 8.50875 6.01415 8.09072 6.01415 7.65485C6.01415 7.21897 6.1873 6.80095 6.49551 6.49274C6.80372 6.18453 7.22174 6.01138 7.65762 6.01138C8.09349 6.01138 8.51152 6.18453 8.81973 6.49274L17.5 15.1757L26.183 6.49137C26.4912 6.18316 26.9092 6.01001 27.3451 6.01001C27.781 6.01001 28.199 6.18316 28.5072 6.49137C28.8154 6.79958 28.9886 7.2176 28.9886 7.65348C28.9886 8.08936 28.8154 8.50738 28.5072 8.81559L19.8242 17.5L28.5045 26.183Z" fill="#222222"/>
</svg>
