<svg width="23" height="23" viewBox="0 0 25 25" fill="none" xmlns="http://www.w3.org/2000/svg">
<path d="M16.6667 9.37498H22.3959L16.6667 3.64581V9.37498ZM7.29175 2.08331H17.7084L23.9584 8.33331V18.75C23.9584 19.3025 23.7389 19.8324 23.3482 20.2231C22.9575 20.6138 22.4276 20.8333 21.8751 20.8333H7.29175C6.73921 20.8333 6.20931 20.6138 5.81861 20.2231C5.42791 19.8324 5.20841 19.3025 5.20841 18.75V4.16665C5.20841 3.61411 5.42791 3.08421 5.81861 2.69351C6.20931 2.30281 6.73921 2.08331 7.29175 2.08331ZM3.12508 6.24998V22.9166H21.8751V25H3.12508C2.57255 25 2.04264 24.7805 1.65194 24.3898C1.26124 23.9991 1.04175 23.4692 1.04175 22.9166V6.24998H3.12508Z" fill="#85B6FF"/>
</svg>
