<svg width="18" height="20" viewBox="0 0 18 23" fill="none" xmlns="http://www.w3.org/2000/svg">
<path fill-rule="evenodd" clip-rule="evenodd" d="M11.1774 1.19264C11.9327 0.423027 12.9495 -0.00554858 14.007 5.42511e-05C15.0645 0.00565708 16.0771 0.444985 16.8247 1.22256C17.5724 2.00013 17.9948 3.05312 18 4.15266C18.0051 5.2522 17.5928 6.30945 16.8525 7.09463L9.02957 15.2289C8.58867 15.6873 8.31877 15.968 8.02003 16.2111C7.66628 16.4977 7.28355 16.7434 6.87863 16.9438C6.53456 17.1141 6.17298 17.2394 5.58168 17.444L2.82913 18.3984L2.16778 18.6276C1.87764 18.7284 1.56623 18.7431 1.26849 18.6701C0.970752 18.5972 0.698457 18.4394 0.482153 18.2145C0.265849 17.9895 0.114094 17.7064 0.0439112 17.3968C-0.0262711 17.0872 -0.0121042 16.7634 0.084823 16.4618L1.22313 12.912C1.41989 12.2972 1.54042 11.9212 1.70421 11.5634C1.8973 11.1427 2.13391 10.7451 2.40986 10.3777C2.6437 10.066 2.91257 9.78533 3.35347 9.32795L11.1774 1.19264ZM2.79204 16.7167L1.9226 15.8116L2.67255 13.4711C2.89094 12.7899 2.98159 12.5125 3.09903 12.2554C3.24325 11.9394 3.42146 11.6416 3.62749 11.3663C3.79644 11.1414 3.99422 10.9336 4.48251 10.4248L10.5511 4.11578C10.8664 4.93493 11.3393 5.6785 11.9408 6.30091C12.5394 6.92592 13.2546 7.41725 14.0423 7.74481L7.97368 14.0538C7.48436 14.5626 7.28554 14.7683 7.06921 14.9429C6.804 15.1577 6.51734 15.3423 6.21419 15.4934C5.96695 15.6156 5.69911 15.7098 5.04394 15.9369L2.79307 16.7178L2.79204 16.7167ZM15.2733 6.46372C15.1146 6.42726 14.9581 6.38112 14.8046 6.32555C14.1371 6.08289 13.5312 5.68588 13.0327 5.16443C12.5314 4.64593 12.1496 4.01603 11.916 3.32207C11.8623 3.16248 11.8175 2.99974 11.7821 2.8347L12.2694 2.32912C12.7348 1.86084 13.3585 1.6015 14.0061 1.60703C14.6536 1.61255 15.2732 1.88249 15.7311 2.35864C16.1891 2.83479 16.4487 3.47899 16.454 4.15235C16.4593 4.8257 16.2099 5.47425 15.7595 5.95815L15.2733 6.46372ZM0.000351049 22.1966C0.000351049 21.9836 0.0817506 21.7792 0.226643 21.6286C0.371535 21.4779 0.568051 21.3933 0.77296 21.3933H17.2553V23H0.77296C0.568051 23 0.371535 22.9154 0.226643 22.7647C0.0817506 22.614 0.000351049 22.4097 0.000351049 22.1966Z" fill="#858585"/>
</svg>
