<svg width="20" height="22" viewBox="0 0 23 25" fill="none" xmlns="http://www.w3.org/2000/svg">
<path d="M15.9922 3.125C14.1369 3.125 12.5125 3.99219 11.5 5.45801C10.4875 3.99219 8.86309 3.125 7.00781 3.125C5.53098 3.12681 4.11512 3.76529 3.07085 4.90038C2.02657 6.03546 1.43916 7.57444 1.4375 9.17969C1.4375 16.0156 10.7624 21.5488 11.1595 21.7773C11.2642 21.8385 11.3812 21.8706 11.5 21.8706C11.6188 21.8706 11.7358 21.8385 11.8405 21.7773C12.2376 21.5488 21.5625 16.0156 21.5625 9.17969C21.5608 7.57444 20.9734 6.03546 19.9292 4.90038C18.8849 3.76529 17.469 3.12681 15.9922 3.125ZM11.5 20.1953C9.85945 19.1562 2.875 14.4229 2.875 9.17969C2.87643 7.98876 3.3123 6.84706 4.08705 6.00494C4.86179 5.16283 5.91216 4.68905 7.00781 4.6875C8.75527 4.6875 10.2224 5.69922 10.8352 7.32422C10.8893 7.46751 10.9814 7.59007 11.0998 7.67632C11.2182 7.76257 11.3575 7.80862 11.5 7.80862C11.6425 7.80862 11.7818 7.76257 11.9002 7.67632C12.0186 7.59007 12.1107 7.46751 12.1648 7.32422C12.7776 5.69629 14.2447 4.6875 15.9922 4.6875C17.0878 4.68905 18.1382 5.16283 18.913 6.00494C19.6877 6.84706 20.1236 7.98876 20.125 9.17969C20.125 14.415 13.1388 19.1553 11.5 20.1953Z" fill="#888888"/>
</svg>
