<svg width="35" height="35" viewBox="0 0 35 35" fill="none" xmlns="http://www.w3.org/2000/svg">
    <path d="M28.4375 5.46875H6.5625C4.75032 5.46875 3.28125 6.93782 3.28125 8.75V26.25C3.28125 28.0622 4.75032 29.5312 6.5625 29.5312H28.4375C30.2497 29.5312 31.7188 28.0622 31.7188 26.25V8.75C31.7188 6.93782 30.2497 5.46875 28.4375 5.46875Z"
          stroke="#7A7A7A" stroke-width="2.1875" stroke-linejoin="round"/>
    <path d="M22.9688 14.2188C24.1769 14.2188 25.1562 13.2394 25.1562 12.0312C25.1562 10.8231 24.1769 9.84375 22.9688 9.84375C21.7606 9.84375 20.7812 10.8231 20.7812 12.0312C20.7812 13.2394 21.7606 14.2188 22.9688 14.2188Z"
          stroke="#7A7A7A" stroke-width="2.1875" stroke-miterlimit="10"/>
    <path d="M20.7812 22.9543L14.5838 16.7685C14.1894 16.3742 13.6594 16.1454 13.102 16.1289C12.5446 16.1124 12.0019 16.3094 11.5849 16.6796L3.28125 24.0624M15.3125 29.5312L23.7439 21.0997C24.1295 20.7133 24.6456 20.4851 25.1909 20.4598C25.7362 20.4345 26.2712 20.614 26.6909 20.963L31.7188 25.1562"
          stroke="#7A7A7A" stroke-width="2.1875" stroke-linecap="round" stroke-linejoin="round"/>
</svg>
