<svg width="87" height="19" viewBox="0 0 87 19" fill="none" xmlns="http://www.w3.org/2000/svg">
    <path d="M0.160511 18V0.545454H6.05824C7.42756 0.545454 8.54688 0.792613 9.41619 1.28693C10.2912 1.77557 10.9389 2.4375 11.3594 3.27273C11.7798 4.10795 11.9901 5.03977 11.9901 6.06818C11.9901 7.09659 11.7798 8.03125 11.3594 8.87216C10.9446 9.71307 10.3026 10.3835 9.43324 10.8835C8.56392 11.3778 7.45028 11.625 6.09233 11.625H1.86506V9.75H6.02415C6.96165 9.75 7.71449 9.58807 8.28267 9.2642C8.85085 8.94034 9.26278 8.50284 9.51847 7.9517C9.77983 7.39489 9.91051 6.76705 9.91051 6.06818C9.91051 5.36932 9.77983 4.74432 9.51847 4.19318C9.26278 3.64205 8.84801 3.21023 8.27415 2.89773C7.70028 2.57955 6.93892 2.42045 5.99006 2.42045H2.27415V18H0.160511ZM14.3295 18H12.1136L18.5227 0.545454H20.7045L27.1136 18H24.8977L19.6818 3.30682H19.5455L14.3295 18ZM15.1477 11.1818H24.0795V13.0568H15.1477V11.1818ZM29.8324 18V0.545454H35.7301C37.0994 0.545454 38.2188 0.792613 39.0881 1.28693C39.9631 1.77557 40.6108 2.4375 41.0312 3.27273C41.4517 4.10795 41.6619 5.03977 41.6619 6.06818C41.6619 7.09659 41.4517 8.03125 41.0312 8.87216C40.6165 9.71307 39.9744 10.3835 39.1051 10.8835C38.2358 11.3778 37.1222 11.625 35.7642 11.625H31.5369V9.75H35.696C36.6335 9.75 37.3864 9.58807 37.9545 9.2642C38.5227 8.94034 38.9347 8.50284 39.1903 7.9517C39.4517 7.39489 39.5824 6.76705 39.5824 6.06818C39.5824 5.36932 39.4517 4.74432 39.1903 4.19318C38.9347 3.64205 38.5199 3.21023 37.946 2.89773C37.3722 2.57955 36.6108 2.42045 35.6619 2.42045H31.946V18H29.8324ZM45.0668 18V0.545454H55.6009V2.42045H47.1804V8.31818H55.0554V10.1932H47.1804V16.125H55.7372V18H45.0668ZM59.4105 18V0.545454H65.3082C66.6719 0.545454 67.7912 0.778409 68.6662 1.24432C69.5412 1.70454 70.1889 2.33807 70.6094 3.14489C71.0298 3.9517 71.2401 4.86932 71.2401 5.89773C71.2401 6.92614 71.0298 7.83807 70.6094 8.63352C70.1889 9.42898 69.544 10.054 68.6747 10.5085C67.8054 10.9574 66.6946 11.1818 65.3423 11.1818H60.5696V9.27273H65.2741C66.206 9.27273 66.956 9.13636 67.5241 8.86364C68.098 8.59091 68.5128 8.20455 68.7685 7.70455C69.0298 7.19886 69.1605 6.59659 69.1605 5.89773C69.1605 5.19886 69.0298 4.58807 68.7685 4.06534C68.5071 3.54261 68.0895 3.1392 67.5156 2.85511C66.9418 2.56534 66.1832 2.42045 65.2401 2.42045H61.5241V18H59.4105ZM67.6264 10.1591L71.9219 18H69.4673L65.2401 10.1591H67.6264ZM84.3075 4.90909C84.2053 4.04545 83.7905 3.375 83.0632 2.89773C82.3359 2.42045 81.4439 2.18182 80.3871 2.18182C79.6143 2.18182 78.9382 2.30682 78.3587 2.55682C77.7848 2.80682 77.3359 3.15057 77.0121 3.58807C76.6939 4.02557 76.5348 4.52273 76.5348 5.07954C76.5348 5.54545 76.6456 5.94602 76.8672 6.28125C77.0945 6.6108 77.3842 6.88636 77.7365 7.10795C78.0888 7.32386 78.4581 7.50284 78.8445 7.64489C79.2308 7.78125 79.5859 7.89205 79.9098 7.97727L81.6825 8.45455C82.1371 8.57386 82.6428 8.73864 83.1996 8.94886C83.7621 9.15909 84.299 9.44602 84.8104 9.80966C85.3274 10.1676 85.7536 10.6278 86.0888 11.1903C86.424 11.7528 86.5916 12.4432 86.5916 13.2614C86.5916 14.2045 86.3445 15.0568 85.8501 15.8182C85.3615 16.5795 84.6456 17.1847 83.7024 17.6335C82.7649 18.0824 81.6257 18.3068 80.2848 18.3068C79.0348 18.3068 77.9524 18.1051 77.0376 17.7017C76.1286 17.2983 75.4126 16.7358 74.8899 16.0142C74.3729 15.2926 74.0803 14.4545 74.0121 13.5H76.1939C76.2507 14.1591 76.4723 14.7045 76.8587 15.1364C77.2507 15.5625 77.745 15.8807 78.3416 16.0909C78.9439 16.2955 79.5916 16.3977 80.2848 16.3977C81.0916 16.3977 81.8161 16.267 82.4581 16.0057C83.1001 15.7386 83.6087 15.3693 83.9837 14.8977C84.3587 14.4205 84.5462 13.8636 84.5462 13.2273C84.5462 12.6477 84.3842 12.1761 84.0604 11.8125C83.7365 11.4489 83.3104 11.1534 82.782 10.9261C82.2536 10.6989 81.6825 10.5 81.0689 10.3295L78.9212 9.71591C77.5575 9.32386 76.478 8.7642 75.6825 8.03693C74.8871 7.30966 74.4893 6.35795 74.4893 5.18182C74.4893 4.20454 74.7536 3.35227 75.282 2.625C75.8161 1.89205 76.532 1.32386 77.4297 0.920454C78.3331 0.511363 79.3416 0.306818 80.4553 0.306818C81.5803 0.306818 82.5803 0.508522 83.4553 0.911931C84.3303 1.30966 85.0234 1.85511 85.5348 2.54829C86.0518 3.24148 86.3246 4.02841 86.353 4.90909H84.3075Z"
          fill="black"/>
    <path d="M0.160511 18H-0.839489V19H0.160511V18ZM0.160511 0.545454V-0.454546H-0.839489V0.545454H0.160511ZM9.41619 1.28693L8.92188 2.15625L8.92863 2.16002L9.41619 1.28693ZM11.3594 3.27273L10.4662 3.72237L10.4662 3.72237L11.3594 3.27273ZM11.3594 8.87216L10.4649 8.42494L10.4625 8.4298L11.3594 8.87216ZM9.43324 10.8835L9.92755 11.7528L9.93182 11.7504L9.43324 10.8835ZM1.86506 11.625H0.865057V12.625H1.86506V11.625ZM1.86506 9.75V8.75H0.865057V9.75H1.86506ZM8.28267 9.2642L7.78747 8.39543L7.78747 8.39543L8.28267 9.2642ZM9.51847 7.9517L8.61322 7.52679L8.61133 7.53087L9.51847 7.9517ZM9.51847 4.19318L8.6113 4.61403L8.61492 4.62167L9.51847 4.19318ZM8.27415 2.89773L7.78923 3.77232L7.79591 3.77595L8.27415 2.89773ZM2.27415 2.42045V1.42045H1.27415V2.42045H2.27415ZM2.27415 18V19H3.27415V18H2.27415ZM1.16051 18V0.545454H-0.839489V18H1.16051ZM0.160511 1.54545H6.05824V-0.454546H0.160511V1.54545ZM6.05824 1.54545C7.31546 1.54545 8.24875 1.77346 8.92189 2.15622L9.9105 0.417641C8.845 -0.188231 7.53965 -0.454546 6.05824 -0.454546V1.54545ZM8.92863 2.16002C9.6423 2.55856 10.1421 3.07866 10.4662 3.72237L12.2526 2.82308C11.7357 1.79634 10.9401 0.992577 9.90376 0.413846L8.92863 2.16002ZM10.4662 3.72237C10.8096 4.40462 10.9901 5.1801 10.9901 6.06818H12.9901C12.9901 4.89945 12.75 3.81129 12.2526 2.82308L10.4662 3.72237ZM10.9901 6.06818C10.9901 6.95617 10.8096 7.73557 10.4649 8.42494L12.2538 9.31937C12.75 8.32693 12.9901 7.23701 12.9901 6.06818H10.9901ZM10.4625 8.4298C10.1417 9.08029 9.64463 9.60833 8.93466 10.0167L9.93182 11.7504C10.9605 11.1587 11.7475 10.3458 12.2562 9.31452L10.4625 8.4298ZM8.93894 10.0142C8.26471 10.3976 7.33648 10.625 6.09233 10.625V12.625C7.56409 12.625 8.86313 12.3581 9.92754 11.7528L8.93894 10.0142ZM6.09233 10.625H1.86506V12.625H6.09233V10.625ZM2.86506 11.625V9.75H0.865057V11.625H2.86506ZM1.86506 10.75H6.02415V8.75H1.86506V10.75ZM6.02415 10.75C7.06448 10.75 8.00735 10.5722 8.77787 10.133L7.78747 8.39543C7.42163 8.60395 6.85881 8.75 6.02415 8.75V10.75ZM8.77787 10.133C9.51201 9.71453 10.0757 9.12682 10.4256 8.37254L8.61133 7.53087C8.44989 7.87887 8.1897 8.16615 7.78747 8.39543L8.77787 10.133ZM10.4237 8.37661C10.7555 7.66982 10.9105 6.89388 10.9105 6.06818H8.91051C8.91051 6.64021 8.8042 7.11995 8.61323 7.5268L10.4237 8.37661ZM10.9105 6.06818C10.9105 5.24271 10.7555 4.46798 10.422 3.76469L8.61492 4.62167C8.80413 5.02065 8.91051 5.49593 8.91051 6.06818H10.9105ZM10.4256 3.77234C10.0727 3.01169 9.49948 2.42633 8.75239 2.0195L7.79591 3.77595C8.19655 3.99413 8.45285 4.2724 8.61133 4.61402L10.4256 3.77234ZM8.75906 2.02316C7.98523 1.59411 7.03777 1.42045 5.99006 1.42045V3.42045C6.84007 3.42045 7.41534 3.56498 7.78924 3.77229L8.75906 2.02316ZM5.99006 1.42045H2.27415V3.42045H5.99006V1.42045ZM1.27415 2.42045V18H3.27415V2.42045H1.27415ZM2.27415 17H0.160511V19H2.27415V17ZM14.3295 18V19H15.0357L15.2719 18.3345L14.3295 18ZM12.1136 18L11.1749 17.6553L10.6812 19H12.1136V18ZM18.5227 0.545454V-0.454546H17.8246L17.584 0.200768L18.5227 0.545454ZM20.7045 0.545454L21.6433 0.200768L21.4026 -0.454546H20.7045V0.545454ZM27.1136 18V19H28.5461L28.0524 17.6553L27.1136 18ZM24.8977 18L23.9553 18.3345L24.1916 19H24.8977V18ZM19.6818 3.30682L20.6242 2.97228L20.388 2.30682H19.6818V3.30682ZM19.5455 3.30682V2.30682H18.8393L18.6031 2.97228L19.5455 3.30682ZM15.1477 11.1818V10.1818H14.1477V11.1818H15.1477ZM24.0795 11.1818H25.0795V10.1818H24.0795V11.1818ZM24.0795 13.0568V14.0568H25.0795V13.0568H24.0795ZM15.1477 13.0568H14.1477V14.0568H15.1477V13.0568ZM14.3295 17H12.1136V19H14.3295V17ZM13.0524 18.3447L19.4614 0.89014L17.584 0.200768L11.1749 17.6553L13.0524 18.3447ZM18.5227 1.54545H20.7045V-0.454546H18.5227V1.54545ZM19.7658 0.89014L26.1749 18.3447L28.0524 17.6553L21.6433 0.200768L19.7658 0.89014ZM27.1136 17H24.8977V19H27.1136V17ZM25.8401 17.6655L20.6242 2.97228L18.7394 3.64135L23.9553 18.3345L25.8401 17.6655ZM19.6818 2.30682H19.5455V4.30682H19.6818V2.30682ZM18.6031 2.97228L13.3872 17.6655L15.2719 18.3345L20.4878 3.64135L18.6031 2.97228ZM15.1477 12.1818H24.0795V10.1818H15.1477V12.1818ZM23.0795 11.1818V13.0568H25.0795V11.1818H23.0795ZM24.0795 12.0568H15.1477V14.0568H24.0795V12.0568ZM16.1477 13.0568V11.1818H14.1477V13.0568H16.1477ZM29.8324 18H28.8324V19H29.8324V18ZM29.8324 0.545454V-0.454546H28.8324V0.545454H29.8324ZM39.0881 1.28693L38.5938 2.15625L38.6005 2.16002L39.0881 1.28693ZM41.0312 3.27273L40.138 3.72237L40.138 3.72237L41.0312 3.27273ZM41.0312 8.87216L40.1368 8.42494L40.1344 8.4298L41.0312 8.87216ZM39.1051 10.8835L39.5994 11.7528L39.6037 11.7504L39.1051 10.8835ZM31.5369 11.625H30.5369V12.625H31.5369V11.625ZM31.5369 9.75V8.75H30.5369V9.75H31.5369ZM37.9545 9.2642L37.4593 8.39543L37.4593 8.39543L37.9545 9.2642ZM39.1903 7.9517L38.2851 7.52679L38.2832 7.53087L39.1903 7.9517ZM39.1903 4.19318L38.2832 4.61403L38.2868 4.62167L39.1903 4.19318ZM37.946 2.89773L37.4611 3.77232L37.4678 3.77595L37.946 2.89773ZM31.946 2.42045V1.42045H30.946V2.42045H31.946ZM31.946 18V19H32.946V18H31.946ZM30.8324 18V0.545454H28.8324V18H30.8324ZM29.8324 1.54545H35.7301V-0.454546H29.8324V1.54545ZM35.7301 1.54545C36.9873 1.54545 37.9206 1.77346 38.5938 2.15622L39.5824 0.417641C38.5169 -0.188231 37.2115 -0.454546 35.7301 -0.454546V1.54545ZM38.6005 2.16002C39.3142 2.55856 39.814 3.07866 40.138 3.72237L41.9245 2.82308C41.4076 1.79634 40.612 0.992577 39.5756 0.413846L38.6005 2.16002ZM40.138 3.72237C40.4815 4.40462 40.6619 5.1801 40.6619 6.06818H42.6619C42.6619 4.89945 42.4219 3.81129 41.9245 2.82308L40.138 3.72237ZM40.6619 6.06818C40.6619 6.95617 40.4815 7.73557 40.1368 8.42494L41.9257 9.31937C42.4219 8.32693 42.6619 7.23701 42.6619 6.06818H40.6619ZM40.1344 8.4298C39.8136 9.08029 39.3165 9.60833 38.6065 10.0167L39.6037 11.7504C40.6324 11.1587 41.4194 10.3458 41.9281 9.31452L40.1344 8.4298ZM38.6108 10.0142C37.9366 10.3976 37.0084 10.625 35.7642 10.625V12.625C37.236 12.625 38.535 12.3581 39.5994 11.7528L38.6108 10.0142ZM35.7642 10.625H31.5369V12.625H35.7642V10.625ZM32.5369 11.625V9.75H30.5369V11.625H32.5369ZM31.5369 10.75H35.696V8.75H31.5369V10.75ZM35.696 10.75C36.7364 10.75 37.6792 10.5722 38.4497 10.133L37.4593 8.39543C37.0935 8.60395 36.5307 8.75 35.696 8.75V10.75ZM38.4497 10.133C39.1839 9.71453 39.7476 9.12682 40.0975 8.37254L38.2832 7.53087C38.1218 7.87887 37.8616 8.16615 37.4593 8.39543L38.4497 10.133ZM40.0956 8.37661C40.4273 7.66982 40.5824 6.89388 40.5824 6.06818H38.5824C38.5824 6.64021 38.4761 7.11995 38.2851 7.5268L40.0956 8.37661ZM40.5824 6.06818C40.5824 5.24271 40.4274 4.46798 40.0939 3.76469L38.2868 4.62167C38.476 5.02065 38.5824 5.49593 38.5824 6.06818H40.5824ZM40.0975 3.77234C39.7446 3.01169 39.1714 2.42633 38.4243 2.0195L37.4678 3.77595C37.8684 3.99413 38.1247 4.2724 38.2832 4.61402L40.0975 3.77234ZM38.4309 2.02316C37.6571 1.59411 36.7096 1.42045 35.6619 1.42045V3.42045C36.5119 3.42045 37.0872 3.56498 37.4611 3.77229L38.4309 2.02316ZM35.6619 1.42045H31.946V3.42045H35.6619V1.42045ZM30.946 2.42045V18H32.946V2.42045H30.946ZM31.946 17H29.8324V19H31.946V17ZM45.0668 18H44.0668V19H45.0668V18ZM45.0668 0.545454V-0.454546H44.0668V0.545454H45.0668ZM55.6009 0.545454H56.6009V-0.454546H55.6009V0.545454ZM55.6009 2.42045V3.42045H56.6009V2.42045H55.6009ZM47.1804 2.42045V1.42045H46.1804V2.42045H47.1804ZM47.1804 8.31818H46.1804V9.31818H47.1804V8.31818ZM55.0554 8.31818H56.0554V7.31818H55.0554V8.31818ZM55.0554 10.1932V11.1932H56.0554V10.1932H55.0554ZM47.1804 10.1932V9.19318H46.1804V10.1932H47.1804ZM47.1804 16.125H46.1804V17.125H47.1804V16.125ZM55.7372 16.125H56.7372V15.125H55.7372V16.125ZM55.7372 18V19H56.7372V18H55.7372ZM46.0668 18V0.545454H44.0668V18H46.0668ZM45.0668 1.54545H55.6009V-0.454546H45.0668V1.54545ZM54.6009 0.545454V2.42045H56.6009V0.545454H54.6009ZM55.6009 1.42045H47.1804V3.42045H55.6009V1.42045ZM46.1804 2.42045V8.31818H48.1804V2.42045H46.1804ZM47.1804 9.31818H55.0554V7.31818H47.1804V9.31818ZM54.0554 8.31818V10.1932H56.0554V8.31818H54.0554ZM55.0554 9.19318H47.1804V11.1932H55.0554V9.19318ZM46.1804 10.1932V16.125H48.1804V10.1932H46.1804ZM47.1804 17.125H55.7372V15.125H47.1804V17.125ZM54.7372 16.125V18H56.7372V16.125H54.7372ZM55.7372 17H45.0668V19H55.7372V17ZM59.4105 18H58.4105V19H59.4105V18ZM59.4105 0.545454V-0.454546H58.4105V0.545454H59.4105ZM68.6662 1.24432L68.1962 2.127L68.2007 2.12936L68.6662 1.24432ZM70.6094 3.14489L69.7226 3.60702L69.7226 3.60703L70.6094 3.14489ZM70.6094 8.63352L69.7253 8.16621L69.7253 8.16622L70.6094 8.63352ZM68.6747 10.5085L69.1335 11.3971L69.1381 11.3947L68.6747 10.5085ZM60.5696 11.1818H59.5696V12.1818H60.5696V11.1818ZM60.5696 9.27273V8.27273H59.5696V9.27273H60.5696ZM67.5241 8.86364L67.0949 7.96044L67.0914 7.96211L67.5241 8.86364ZM68.7685 7.70455L67.8801 7.24539L67.8781 7.24926L68.7685 7.70455ZM67.5156 2.85511L67.0649 3.74779L67.072 3.75131L67.5156 2.85511ZM61.5241 2.42045V1.42045H60.5241V2.42045H61.5241ZM61.5241 18V19H62.5241V18H61.5241ZM67.6264 10.1591L68.5034 9.67864L68.2188 9.15909H67.6264V10.1591ZM71.9219 18V19H73.6099L72.7989 17.5195L71.9219 18ZM69.4673 18L68.5871 18.4746L68.8704 19H69.4673V18ZM65.2401 10.1591V9.15909H63.5649L64.3598 10.6336L65.2401 10.1591ZM60.4105 18V0.545454H58.4105V18H60.4105ZM59.4105 1.54545H65.3082V-0.454546H59.4105V1.54545ZM65.3082 1.54545C66.5664 1.54545 67.5099 1.76158 68.1962 2.12699L69.1362 0.361647C68.0724 -0.204759 66.7773 -0.454546 65.3082 -0.454546V1.54545ZM68.2007 2.12936C68.9119 2.50342 69.4044 2.99654 69.7226 3.60702L71.4962 2.68275C70.9734 1.6796 70.1705 0.905668 69.1317 0.359274L68.2007 2.12936ZM69.7226 3.60703C70.0594 4.25346 70.2401 5.00903 70.2401 5.89773H72.2401C72.2401 4.72961 72.0002 3.64995 71.4962 2.68275L69.7226 3.60703ZM70.2401 5.89773C70.2401 6.78674 70.0593 7.53419 69.7253 8.16621L71.4935 9.10083C72.0003 8.14194 72.2401 7.06553 72.2401 5.89773H70.2401ZM69.7253 8.16622C69.408 8.76646 68.9182 9.25274 68.2114 9.62235L69.1381 11.3947C70.1698 10.8552 70.9698 10.0915 71.4935 9.10083L69.7253 8.16622ZM68.2159 9.61998C67.5321 9.97305 66.5927 10.1818 65.3423 10.1818V12.1818C66.7965 12.1818 68.0787 11.9417 69.1335 11.3971L68.2159 9.61998ZM65.3423 10.1818H60.5696V12.1818H65.3423V10.1818ZM61.5696 11.1818V9.27273H59.5696V11.1818H61.5696ZM60.5696 10.2727H65.2741V8.27273H60.5696V10.2727ZM65.2741 10.2727C66.29 10.2727 67.2048 10.1262 67.9569 9.76516L67.0914 7.96211C66.7072 8.14655 66.122 8.27273 65.2741 8.27273V10.2727ZM67.9534 9.76683C68.6986 9.41265 69.2899 8.88123 69.6588 8.15983L67.8781 7.24926C67.7357 7.52786 67.4974 7.76917 67.0949 7.96044L67.9534 9.76683ZM69.6568 8.1637C70.0064 7.48734 70.1605 6.72052 70.1605 5.89773H68.1605C68.1605 6.47266 68.0533 6.91039 67.8801 7.24539L69.6568 8.1637ZM70.1605 5.89773C70.1605 5.07374 70.006 4.30435 69.6629 3.61813L67.874 4.51255C68.0537 4.87179 68.1605 5.32399 68.1605 5.89773H70.1605ZM69.6629 3.61813C69.2947 2.88183 68.7085 2.32983 67.9593 1.95892L67.072 3.75131C67.4704 3.94858 67.7195 4.20339 67.874 4.51255L69.6629 3.61813ZM67.9664 1.96246C67.2028 1.57691 66.2722 1.42045 65.2401 1.42045V3.42045C66.0942 3.42045 66.6807 3.55377 67.0649 3.74777L67.9664 1.96246ZM65.2401 1.42045H61.5241V3.42045H65.2401V1.42045ZM60.5241 2.42045V18H62.5241V2.42045H60.5241ZM61.5241 17H59.4105V19H61.5241V17ZM66.7494 10.6395L71.0449 18.4805L72.7989 17.5195L68.5034 9.67864L66.7494 10.6395ZM71.9219 17H69.4673V19H71.9219V17ZM70.3476 17.5254L66.1203 9.68453L64.3598 10.6336L68.5871 18.4746L70.3476 17.5254ZM65.2401 11.1591H67.6264V9.15909H65.2401V11.1591ZM84.3075 4.90909L83.3145 5.02669L83.419 5.90909H84.3075V4.90909ZM83.0632 2.89773L82.5146 3.73377L82.5146 3.73377L83.0632 2.89773ZM78.3587 2.55682L77.9626 1.6386L77.9593 1.64004L78.3587 2.55682ZM77.0121 3.58807L76.2083 2.99307L76.2033 2.9999L77.0121 3.58807ZM76.8672 6.28125L76.033 6.83268L76.0384 6.84089L76.044 6.84898L76.8672 6.28125ZM77.7365 7.10795L77.204 7.95447L77.2139 7.96056L77.7365 7.10795ZM78.8445 7.64489L78.4994 8.58354L78.5116 8.58788L78.8445 7.64489ZM79.9098 7.97727L80.1698 7.01164L80.1643 7.0102L79.9098 7.97727ZM81.6825 8.45455L81.4226 9.42018L81.4286 9.42178L81.6825 8.45455ZM83.1996 8.94886L82.8464 9.88441L82.8495 9.88558L83.1996 8.94886ZM84.8104 9.80966L84.2308 10.6247L84.2412 10.6319L84.8104 9.80966ZM86.0888 11.1903L86.9478 10.6784L86.9478 10.6784L86.0888 11.1903ZM85.8501 15.8182L85.0114 15.2736L85.0086 15.2781L85.8501 15.8182ZM83.7024 17.6335L83.2727 16.7306L83.2706 16.7316L83.7024 17.6335ZM77.0376 17.7017L76.632 18.6158L76.6341 18.6167L77.0376 17.7017ZM74.8899 16.0142L74.077 16.5967L74.0801 16.6009L74.8899 16.0142ZM74.0121 13.5V12.5H72.9381L73.0146 13.5712L74.0121 13.5ZM76.1939 13.5L77.1902 13.4141L77.1114 12.5H76.1939V13.5ZM76.8587 15.1364L76.1134 15.8032L76.1227 15.8134L76.8587 15.1364ZM78.3416 16.0909L78.0092 17.0341L78.02 17.0378L78.3416 16.0909ZM82.4581 16.0057L82.8351 16.9319L82.8421 16.929L82.4581 16.0057ZM83.9837 14.8977L84.7664 15.5201L84.77 15.5155L83.9837 14.8977ZM84.0604 11.8125L84.8071 11.1474L84.8071 11.1474L84.0604 11.8125ZM82.782 10.9261L82.3868 11.8448L82.3868 11.8448L82.782 10.9261ZM81.0689 10.3295L80.7942 11.2911L80.8012 11.2931L81.0689 10.3295ZM78.9212 9.71591L78.6449 10.677L78.6464 10.6774L78.9212 9.71591ZM75.6825 8.03693L75.0078 8.77496L75.0078 8.77496L75.6825 8.03693ZM75.282 2.625L74.4738 2.03608L74.473 2.0372L75.282 2.625ZM77.4297 0.920454L77.8396 1.8326L77.8422 1.83141L77.4297 0.920454ZM83.4553 0.911931L83.0366 1.82008L83.0415 1.8223L83.4553 0.911931ZM85.5348 2.54829L84.7301 3.14195L84.7332 3.14619L85.5348 2.54829ZM86.353 4.90909V5.90909H87.3858L87.3525 4.87685L86.353 4.90909ZM85.3006 4.79149C85.1636 3.6344 84.5861 2.70099 83.6119 2.06168L82.5146 3.73377C82.9949 4.04901 83.2469 4.45651 83.3145 5.02669L85.3006 4.79149ZM83.6119 2.06168C82.6895 1.45639 81.5966 1.18182 80.3871 1.18182V3.18182C81.2912 3.18182 81.9824 3.38452 82.5146 3.73377L83.6119 2.06168ZM80.3871 1.18182C79.5079 1.18182 78.6919 1.32399 77.9626 1.63861L78.7548 3.47503C79.1845 3.28965 79.7208 3.18182 80.3871 3.18182V1.18182ZM77.9593 1.64004C77.2492 1.94938 76.6512 2.39478 76.2083 2.99309L77.8158 4.18305C78.0206 3.90636 78.3204 3.66425 78.7581 3.4736L77.9593 1.64004ZM76.2033 2.9999C75.757 3.6136 75.5348 4.31801 75.5348 5.07954H77.5348C77.5348 4.72744 77.6308 4.43753 77.8208 4.17624L76.2033 2.9999ZM75.5348 5.07954C75.5348 5.70951 75.6868 6.30905 76.033 6.83268L77.7014 5.72982C77.6044 5.58299 77.5348 5.3814 77.5348 5.07954H75.5348ZM76.044 6.84898C76.3513 7.29463 76.7416 7.66352 77.2041 7.95441L78.269 6.26149C78.0269 6.10921 77.8376 5.92696 77.6904 5.71352L76.044 6.84898ZM77.2139 7.96056C77.6222 8.21077 78.0509 8.41859 78.4994 8.58346L79.1895 6.70631C78.8652 6.58709 78.5554 6.43695 78.2591 6.25535L77.2139 7.96056ZM78.5116 8.58788C78.9183 8.73141 79.3 8.85084 79.6553 8.94435L80.1643 7.0102C79.8719 6.93325 79.5433 6.83109 79.1773 6.7019L78.5116 8.58788ZM79.6498 8.94289L81.4226 9.42016L81.9425 7.48893L80.1698 7.01166L79.6498 8.94289ZM81.4286 9.42178C81.8421 9.53031 82.314 9.6834 82.8464 9.88441L83.5528 8.01332C82.9716 7.79388 82.4321 7.61742 81.9364 7.48731L81.4286 9.42178ZM82.8495 9.88558C83.327 10.064 83.7872 10.3091 84.2308 10.6246L85.3899 8.9947C84.8109 8.58294 84.1972 8.25415 83.5497 8.01215L82.8495 9.88558ZM84.2412 10.6319C84.6356 10.9049 84.9647 11.2576 85.2298 11.7023L86.9478 10.6784C86.5424 9.99813 86.0192 9.43028 85.3796 8.98747L84.2412 10.6319ZM85.2298 11.7023C85.4523 12.0757 85.5916 12.5789 85.5916 13.2614H87.5916C87.5916 12.3075 87.3957 11.43 86.9478 10.6784L85.2298 11.7023ZM85.5916 13.2614C85.5916 14.0192 85.3962 14.6809 85.0114 15.2736L86.6889 16.3627C87.2927 15.4327 87.5916 14.3899 87.5916 13.2614H85.5916ZM85.0086 15.2781C84.6355 15.8594 84.074 16.3492 83.2727 16.7306L84.1321 18.5365C85.2172 18.0201 86.0876 17.2997 86.6917 16.3583L85.0086 15.2781ZM83.2706 16.7316C82.5011 17.1 81.518 17.3068 80.2848 17.3068V19.3068C81.7334 19.3068 83.0287 19.0648 84.1343 18.5355L83.2706 16.7316ZM80.2848 17.3068C79.14 17.3068 78.2012 17.1219 77.4411 16.7867L76.6341 18.6167C77.7036 19.0883 78.9296 19.3068 80.2848 19.3068V17.3068ZM77.4433 16.7877C76.6762 16.4473 76.1073 15.9902 75.6998 15.4276L74.0801 16.6009C74.718 17.4814 75.5809 18.1493 76.632 18.6158L77.4433 16.7877ZM75.7028 15.4318C75.3017 14.872 75.0656 14.2141 75.0095 13.4288L73.0146 13.5712C73.0949 14.695 73.4441 15.7133 74.077 16.5967L75.7028 15.4318ZM74.0121 14.5H76.1939V12.5H74.0121V14.5ZM75.1976 13.5859C75.2702 14.4288 75.5627 15.1876 76.1134 15.8032L77.6039 14.4696C77.3819 14.2214 77.2312 13.8894 77.1902 13.4141L75.1976 13.5859ZM76.1227 15.8134C76.6355 16.3708 77.273 16.7746 78.0093 17.0341L78.674 15.1478C78.2171 14.9868 77.8659 14.7542 77.5946 14.4593L76.1227 15.8134ZM78.02 17.0378C78.7348 17.2805 79.492 17.3977 80.2848 17.3977V15.3977C79.6912 15.3977 79.153 15.3104 78.6632 15.144L78.02 17.0378ZM80.2848 17.3977C81.2 17.3977 82.0554 17.2493 82.8351 16.9319L82.0811 15.0795C81.5767 15.2848 80.9833 15.3977 80.2848 15.3977V17.3977ZM82.8421 16.929C83.6161 16.6071 84.2708 16.1433 84.7664 15.5201L83.201 14.2753C82.9465 14.5953 82.5842 14.8702 82.0741 15.0824L82.8421 16.929ZM84.77 15.5155C85.2905 14.8531 85.5462 14.076 85.5462 13.2273H83.5462C83.5462 13.6512 83.4269 13.9878 83.1973 14.2799L84.77 15.5155ZM85.5462 13.2273C85.5462 12.4517 85.3241 11.7279 84.8071 11.1474L83.3136 12.4776C83.4444 12.6244 83.5462 12.8438 83.5462 13.2273H85.5462ZM84.8071 11.1474C84.3699 10.6565 83.8157 10.2822 83.1771 10.0075L82.3868 11.8448C82.805 12.0246 83.1031 12.2412 83.3136 12.4776L84.8071 11.1474ZM83.1771 10.0075C82.6031 9.76064 81.9891 9.54729 81.3365 9.36603L80.8012 11.2931C81.376 11.4527 81.904 11.6371 82.3868 11.8448L83.1771 10.0075ZM81.3436 9.36802L79.1959 8.75438L78.6464 10.6774L80.7942 11.2911L81.3436 9.36802ZM79.1975 8.75484C77.9371 8.39247 77.0088 7.89452 76.3573 7.2989L75.0078 8.77496C75.9472 9.63389 77.178 10.2553 78.6449 10.677L79.1975 8.75484ZM76.3573 7.2989C75.7893 6.77956 75.4893 6.10581 75.4893 5.18182H73.4893C73.4893 6.61009 73.9849 7.83976 75.0078 8.77496L76.3573 7.2989ZM75.4893 5.18182C75.4893 4.39632 75.6976 3.75416 76.091 3.2128L74.473 2.0372C73.8095 2.95038 73.4893 4.01277 73.4893 5.18182H75.4893ZM76.0902 3.21392C76.5132 2.63335 77.0865 2.17098 77.8396 1.83259L77.0198 0.00831658C75.9774 0.476744 75.1189 1.15075 74.4738 2.03608L76.0902 3.21392ZM77.8422 1.83141C78.6009 1.48783 79.4663 1.30682 80.4553 1.30682V-0.693182C79.2169 -0.693182 78.0653 -0.465109 77.0172 0.00949989L77.8422 1.83141ZM80.4553 1.30682C81.4597 1.30682 82.3131 1.4865 83.0366 1.82006L83.8739 0.0037991C82.8474 -0.469455 81.7008 -0.693182 80.4553 -0.693182V1.30682ZM83.0415 1.8223C83.7796 2.15782 84.3312 2.60126 84.7301 3.14194L86.3395 1.95465C85.7157 1.10896 84.8809 0.461491 83.8691 0.00156437L83.0415 1.8223ZM84.7332 3.14619C85.1256 3.6722 85.3316 4.26087 85.3535 4.94133L87.3525 4.87685C87.3176 3.79595 86.9781 2.81075 86.3364 1.9504L84.7332 3.14619ZM86.353 3.90909H84.3075V5.90909H86.353V3.90909Z"
          fill="black"/>
</svg>
