<svg width="26" height="26" viewBox="0 0 41 41" fill="none" xmlns="http://www.w3.org/2000/svg">
<path d="M28.7 21.0125C28.7 20.3328 28.9699 19.6811 29.4505 19.2005C29.9311 18.7199 30.5828 18.45 31.2625 18.45C31.9421 18.45 32.5939 18.7199 33.0744 19.2005C33.555 19.6811 33.825 20.3328 33.825 21.0125C33.825 21.6921 33.555 22.3439 33.0744 22.8244C32.5939 23.305 31.9421 23.575 31.2625 23.575C30.5828 23.575 29.9311 23.305 29.4505 22.8244C28.9699 22.3439 28.7 21.6921 28.7 21.0125ZM18.45 21.0125C18.45 20.3328 18.7199 19.6811 19.2005 19.2005C19.6811 18.7199 20.3328 18.45 21.0125 18.45C21.6921 18.45 22.3439 18.7199 22.8244 19.2005C23.305 19.6811 23.575 20.3328 23.575 21.0125C23.575 21.6921 23.305 22.3439 22.8244 22.8244C22.3439 23.305 21.6921 23.575 21.0125 23.575C20.3328 23.575 19.6811 23.305 19.2005 22.8244C18.7199 22.3439 18.45 21.6921 18.45 21.0125ZM8.19995 21.0125C8.19995 20.3328 8.46993 19.6811 8.95049 19.2005C9.43105 18.7199 10.0828 18.45 10.7625 18.45C11.4421 18.45 12.0939 18.7199 12.5744 19.2005C13.055 19.6811 13.325 20.3328 13.325 21.0125C13.325 21.6921 13.055 22.3439 12.5744 22.8244C12.0939 23.305 11.4421 23.575 10.7625 23.575C10.0828 23.575 9.43105 23.305 8.95049 22.8244C8.46993 22.3439 8.19995 21.6921 8.19995 21.0125Z" fill="#8A8A8A"/>
</svg>
