<svg width="15" height="18" viewBox="0 0 15 18" fill="none" xmlns="http://www.w3.org/2000/svg">
<path fill-rule="evenodd" clip-rule="evenodd" d="M9.31452 0.933369C9.94391 0.331064 10.7913 -0.00434237 11.6725 4.24574e-05C12.5537 0.00442728 13.3976 0.348249 14.0206 0.956786C14.6437 1.56532 14.9956 2.38939 15 3.24991C15.0043 4.11042 14.6607 4.93783 14.0437 5.55232L7.52465 11.9182C7.15723 12.277 6.93231 12.4967 6.68336 12.687C6.38856 12.9112 6.06963 13.1035 5.73219 13.2603C5.44547 13.3936 5.14415 13.4917 4.6514 13.6518L2.35761 14.3987L1.80648 14.5781C1.5647 14.657 1.30519 14.6685 1.05708 14.6114C0.80896 14.5543 0.582047 14.4308 0.401794 14.2548C0.221541 14.0788 0.095078 13.8572 0.0365927 13.6149C-0.0218926 13.3726 -0.0100868 13.1192 0.0706858 12.8831L1.01928 10.105C1.18324 9.62386 1.28368 9.32963 1.42018 9.04964C1.58108 8.72037 1.77826 8.4092 2.00822 8.12166C2.20309 7.87772 2.42714 7.65809 2.79456 7.30014L9.31452 0.933369ZM2.3267 13.0826L1.60217 12.3743L2.22712 10.5426C2.40912 10.0095 2.48466 9.79236 2.58252 9.59117C2.70271 9.34388 2.85122 9.11083 3.02291 8.89539C3.1637 8.71935 3.32852 8.55673 3.73543 8.15854L8.79258 3.22105C9.05536 3.86212 9.44942 4.44404 9.95064 4.93115C10.4495 5.42028 11.0455 5.8048 11.7019 6.06115L6.64473 10.9986C6.23696 11.3968 6.07128 11.5578 5.89101 11.6944C5.67 11.8626 5.43112 12.007 5.17849 12.1253C4.97246 12.2209 4.74926 12.2946 4.20329 12.4724L2.32756 13.0835L2.3267 13.0826ZM12.7277 5.05857C12.5955 5.03003 12.4651 4.99392 12.3371 4.95043C11.7809 4.76053 11.276 4.44982 10.8606 4.04173C10.4428 3.63595 10.1247 3.14298 9.93004 2.59988C9.88521 2.47498 9.84795 2.34762 9.81844 2.21846L10.2245 1.82279C10.6123 1.45631 11.1321 1.25335 11.6717 1.25767C12.2114 1.26199 12.7277 1.47325 13.1093 1.84589C13.4909 2.21853 13.7072 2.72269 13.7116 3.24966C13.7161 3.77664 13.5082 4.2842 13.1329 4.6629L12.7277 5.05857ZM0.000292541 17.3713C0.000292541 17.2045 0.0681255 17.0446 0.188869 16.9267C0.309613 16.8088 0.473376 16.7426 0.644133 16.7426H14.3794V18H0.644133C0.473376 18 0.309613 17.9338 0.188869 17.8159C0.0681255 17.6979 0.000292541 17.538 0.000292541 17.3713Z" fill="white"/>
</svg>
