<svg width="27" height="27" viewBox="0 0 27 27" fill="none" xmlns="http://www.w3.org/2000/svg">
    <path d="M13.5 26C15.1418 26.0021 16.7679 25.6798 18.2847 25.0514C19.8016 24.4231 21.1793 23.5012 22.3387 22.3387C23.5012 21.1793 24.4231 19.8016 25.0514 18.2847C25.6798 16.7679 26.0021 15.1418 26 13.5C26.0021 11.8582 25.6797 10.2321 25.0514 8.71527C24.4231 7.19843 23.5012 5.8207 22.3387 4.66126C21.1793 3.49878 19.8016 2.57688 18.2847 1.94856C16.7679 1.32024 15.1418 0.997883 13.5 1.00001C11.8582 0.997917 10.2321 1.32029 8.71527 1.94861C7.19843 2.57693 5.8207 3.4988 4.66126 4.66126C3.4988 5.8207 2.57693 7.19843 1.94861 8.71527C1.32029 10.2321 0.997917 11.8582 1.00001 13.5C0.997883 15.1418 1.32024 16.7679 1.94856 18.2847C2.57688 19.8016 3.49878 21.1793 4.66126 22.3387C5.8207 23.5012 7.19843 24.4231 8.71527 25.0514C10.2321 25.6797 11.8582 26.0021 13.5 26Z"
          stroke="#1FCAC0" stroke-width="2" stroke-linejoin="round"/>
    <path d="M8.5 13.5L12.25 17.25L19.75 9.75" stroke="#1FCAC0" stroke-width="2" stroke-linecap="round"
          stroke-linejoin="round"/>
</svg>
