<svg width="16" height="20" viewBox="0 0 23 27" fill="none" xmlns="http://www.w3.org/2000/svg">
<path fill-rule="evenodd" clip-rule="evenodd" d="M14.2823 1.37691C15.2473 0.488388 16.5466 -0.00640588 17.8978 6.26334e-05C19.249 0.00653115 20.5429 0.513739 21.4983 1.41146C22.4537 2.30917 22.9933 3.52485 22.9999 4.79428C23.0066 6.06371 22.4797 7.28431 21.5337 8.19081L11.5378 17.5819C10.9744 18.1111 10.6295 18.4352 10.2478 18.7159C9.7958 19.0467 9.30676 19.3304 8.78936 19.5617C8.34972 19.7584 7.8877 19.903 7.13215 20.1392L3.615 21.2411L2.76994 21.5057C2.39921 21.6221 2.0013 21.6391 1.62085 21.5548C1.24041 21.4706 0.892472 21.2884 0.616084 21.0288C0.339696 20.7691 0.145786 20.4422 0.0561088 20.0848C-0.0335687 19.7274 -0.0154664 19.3535 0.108385 19.0052L1.56289 14.907C1.81431 14.1972 1.96831 13.7631 2.1776 13.3501C2.42433 12.8643 2.72667 12.4053 3.07927 11.9811C3.37807 11.6213 3.72162 11.2973 4.28499 10.7692L14.2823 1.37691ZM3.56761 19.2996L2.45666 18.2546L3.41492 15.5525C3.69398 14.766 3.80981 14.4457 3.95987 14.1489C4.14415 13.7841 4.37187 13.4404 4.63513 13.1225C4.851 12.8628 5.10373 12.6229 5.72766 12.0355L13.482 4.75171C13.8849 5.69742 14.4891 6.55588 15.2576 7.27446C16.0226 7.99603 16.9364 8.56328 17.9429 8.94145L10.1886 16.2253C9.56334 16.8127 9.3093 17.0501 9.03288 17.2517C8.694 17.4997 8.32772 17.7128 7.94035 17.8873C7.62444 18.0283 7.2822 18.1371 6.44504 18.3993L3.56893 19.3008L3.56761 19.2996ZM19.5159 7.46243C19.3131 7.42032 19.1131 7.36706 18.917 7.3029C18.064 7.02276 17.2899 6.5644 16.6529 5.96238C16.0123 5.36377 15.5245 4.63655 15.2261 3.83536C15.1573 3.65111 15.1002 3.46323 15.0549 3.27268L15.6775 2.68899C16.2722 2.14836 17.0692 1.84895 17.8966 1.85533C18.7241 1.8617 19.5158 2.17335 20.1009 2.72307C20.686 3.27278 21.0177 4.01653 21.0245 4.79392C21.0313 5.57131 20.7126 6.32007 20.1372 6.87873L19.5159 7.46243ZM0.000448563 25.6262C0.000448563 25.3802 0.104459 25.1443 0.289599 24.9704C0.474739 24.7965 0.725843 24.6987 0.987671 24.6987H22.0484V26.5537H0.987671C0.725843 26.5537 0.474739 26.456 0.289599 26.2821C0.104459 26.1081 0.000448563 25.8722 0.000448563 25.6262Z" fill="white"/>
</svg>
