<svg width="94" height="21" viewBox="0 0 94 21" fill="none" xmlns="http://www.w3.org/2000/svg">
<g filter="url(#filter0_i_113_470)">
<path d="M0.0905541 20V1.09091H6.47976C7.96319 1.09091 9.17578 1.35866 10.1175 1.89418C11.0655 2.42353 11.7672 3.14062 12.2227 4.04545C12.6781 4.95028 12.9059 5.95975 12.9059 7.07386C12.9059 8.18797 12.6781 9.20052 12.2227 10.1115C11.7733 11.0225 11.0778 11.7488 10.136 12.2905C9.19425 12.826 7.98781 13.0938 6.51669 13.0938H1.93714V11.0625H6.44283C7.45845 11.0625 8.27403 10.8871 8.88956 10.5362C9.50509 10.1854 9.95135 9.71141 10.2283 9.11435C10.5115 8.51113 10.6531 7.83097 10.6531 7.07386C10.6531 6.31676 10.5115 5.63968 10.2283 5.04261C9.95135 4.44555 9.50201 3.97775 8.88033 3.6392C8.25864 3.29451 7.43383 3.12216 6.40589 3.12216H2.38033V20H0.0905541ZM15.4403 20H13.0398L19.983 1.09091H22.3466L29.2898 20H26.8892L21.2386 4.08239H21.0909L15.4403 20ZM16.3267 12.6136H26.0028V14.6449H16.3267V12.6136ZM32.2351 20V1.09091H38.6243C40.1077 1.09091 41.3203 1.35866 42.2621 1.89418C43.21 2.42353 43.9117 3.14062 44.3672 4.04545C44.8227 4.95028 45.0504 5.95975 45.0504 7.07386C45.0504 8.18797 44.8227 9.20052 44.3672 10.1115C43.9179 11.0225 43.2223 11.7488 42.2805 12.2905C41.3388 12.826 40.1323 13.0938 38.6612 13.0938H34.0817V11.0625H38.5874C39.603 11.0625 40.4186 10.8871 41.0341 10.5362C41.6496 10.1854 42.0959 9.71141 42.3729 9.11435C42.656 8.51113 42.7976 7.83097 42.7976 7.07386C42.7976 6.31676 42.656 5.63968 42.3729 5.04261C42.0959 4.44555 41.6465 3.97775 41.0249 3.6392C40.4032 3.29451 39.5784 3.12216 38.5504 3.12216H34.5249V20H32.2351ZM48.739 20V1.09091H60.1509V3.12216H51.0288V9.51136H59.56V11.5426H51.0288V17.9688H60.2987V20H48.739ZM64.2781 20V1.09091H70.6673C72.1445 1.09091 73.3571 1.34328 74.305 1.84801C75.253 2.34659 75.9547 3.03291 76.4102 3.90696C76.8656 4.78101 77.0934 5.77509 77.0934 6.8892C77.0934 8.00331 76.8656 8.99124 76.4102 9.85298C75.9547 10.7147 75.256 11.3918 74.3143 11.8842C73.3725 12.3705 72.1692 12.6136 70.7042 12.6136H65.5337V10.5455H70.6303C71.6398 10.5455 72.4523 10.3977 73.0678 10.1023C73.6895 9.80682 74.1388 9.38826 74.4158 8.84659C74.699 8.29877 74.8406 7.64631 74.8406 6.8892C74.8406 6.1321 74.699 5.47041 74.4158 4.90412C74.1327 4.33783 73.6803 3.9008 73.0586 3.59304C72.4369 3.27912 71.6152 3.12216 70.5934 3.12216H66.5678V20H64.2781ZM73.1786 11.5057L77.832 20H75.1729L70.5934 11.5057H73.1786ZM91.2498 5.81818C91.139 4.88258 90.6897 4.15625 89.9018 3.6392C89.1139 3.12216 88.1476 2.86364 87.0027 2.86364C86.1655 2.86364 85.4331 2.99905 84.8052 3.26989C84.1835 3.54072 83.6973 3.91311 83.3464 4.38707C83.0017 4.86103 82.8294 5.39962 82.8294 6.00284C82.8294 6.50757 82.9494 6.94152 83.1895 7.30469C83.4357 7.66169 83.7496 7.96023 84.1312 8.20028C84.5128 8.43418 84.9129 8.62808 85.3315 8.78196C85.7501 8.92969 86.1348 9.04972 86.4856 9.14204L88.4061 9.65909C88.8985 9.78835 89.4463 9.96686 90.0495 10.1946C90.6589 10.4223 91.2406 10.7332 91.7946 11.1271C92.3547 11.5149 92.8163 12.0135 93.1795 12.6229C93.5427 13.2322 93.7243 13.9801 93.7243 14.8665C93.7243 15.8883 93.4565 16.8116 92.921 17.6364C92.3916 18.4612 91.6161 19.1167 90.5943 19.603C89.5787 20.0893 88.3445 20.3324 86.8919 20.3324C85.5377 20.3324 84.3651 20.1139 83.3741 19.6768C82.3893 19.2398 81.6137 18.6304 81.0474 17.8487C80.4873 17.067 80.1703 16.1591 80.0964 15.125H82.46C82.5216 15.839 82.7617 16.4299 83.1802 16.8977C83.6049 17.3594 84.1404 17.7041 84.7868 17.9318C85.4392 18.1534 86.1409 18.2642 86.8919 18.2642C87.7659 18.2642 88.5507 18.1226 89.2463 17.8395C89.9418 17.5502 90.4927 17.1501 90.899 16.6392C91.3052 16.1222 91.5083 15.5189 91.5083 14.8295C91.5083 14.2017 91.3329 13.6908 90.9821 13.2969C90.6312 12.9029 90.1696 12.5829 89.5971 12.3366C89.0247 12.0904 88.4061 11.875 87.7413 11.6903L85.4146 11.0256C83.9373 10.6009 82.7678 9.99455 81.9061 9.20668C81.0443 8.4188 80.6135 7.38778 80.6135 6.11364C80.6135 5.05492 80.8997 4.13163 81.4721 3.34375C82.0507 2.54972 82.8263 1.93418 83.7988 1.49716C84.7775 1.05398 85.8701 0.832386 87.0765 0.832386C88.2953 0.832386 89.3786 1.0509 90.3265 1.48793C91.2744 1.9188 92.0254 2.50971 92.5794 3.26065C93.1395 4.0116 93.435 4.86411 93.4657 5.81818H91.2498Z" fill="black"/>
</g>
<path d="M0.0905541 20H-0.909446V21H0.0905541V20ZM0.0905541 1.09091V0.0909085H-0.909446V1.09091H0.0905541ZM10.1175 1.89418L9.62323 2.76349L9.62998 2.76726L10.1175 1.89418ZM12.2227 4.04545L11.3294 4.4951L11.3294 4.4951L12.2227 4.04545ZM12.2227 10.1115L11.3282 9.66428L11.3258 9.66915L12.2227 10.1115ZM10.136 12.2905L10.6303 13.1598L10.6346 13.1573L10.136 12.2905ZM1.93714 13.0938H0.937145V14.0938H1.93714V13.0938ZM1.93714 11.0625V10.0625H0.937145V11.0625H1.93714ZM8.88956 10.5362L8.39436 9.66744L8.39436 9.66744L8.88956 10.5362ZM10.2283 9.11435L9.32309 8.68943L9.3212 8.69351L10.2283 9.11435ZM10.2283 5.04261L9.32117 5.46346L9.32479 5.4711L10.2283 5.04261ZM8.88033 3.6392L8.39541 4.51379L8.40208 4.51743L8.88033 3.6392ZM2.38033 3.12216V2.12216H1.38033V3.12216H2.38033ZM2.38033 20V21H3.38033V20H2.38033ZM1.09055 20V1.09091H-0.909446V20H1.09055ZM0.0905541 2.09091H6.47976V0.0909085H0.0905541V2.09091ZM6.47976 2.09091C7.85109 2.09091 8.87766 2.33951 9.62324 2.76347L10.6118 1.02489C9.4739 0.37782 8.07528 0.0909085 6.47976 0.0909085V2.09091ZM9.62998 2.76726C10.4166 3.20652 10.9704 3.78178 11.3294 4.4951L13.1159 3.59581C12.564 2.49947 11.7144 1.64054 10.6051 1.02109L9.62998 2.76726ZM11.3294 4.4951C11.7079 5.24695 11.9059 6.10008 11.9059 7.07386H13.9059C13.9059 5.81943 13.6484 4.65362 13.1159 3.59581L11.3294 4.4951ZM11.9059 7.07386C11.9059 8.04755 11.708 8.90484 11.3282 9.66429L13.1171 10.5587C13.6483 9.4962 13.9059 8.3284 13.9059 7.07386H11.9059ZM11.3258 9.66915C10.9704 10.3897 10.4198 10.9736 9.63743 11.4236L10.6346 13.1573C11.7357 12.524 12.5762 11.6553 13.1195 10.5539L11.3258 9.66915ZM9.64171 11.4212C8.89504 11.8458 7.87401 12.0938 6.51669 12.0938V14.0938C8.10161 14.0938 9.49346 13.8062 10.6303 13.1598L9.64171 11.4212ZM6.51669 12.0938H1.93714V14.0938H6.51669V12.0938ZM2.93714 13.0938V11.0625H0.937145V13.0938H2.93714ZM1.93714 12.0625H6.44283V10.0625H1.93714V12.0625ZM6.44283 12.0625C7.56129 12.0625 8.56689 11.8712 9.38476 11.405L8.39436 9.66744C7.98117 9.90296 7.35562 10.0625 6.44283 10.0625V12.0625ZM9.38476 11.405C10.1662 10.9596 10.7642 10.3354 11.1355 9.53518L9.3212 8.69351C9.13845 9.08744 8.84394 9.41118 8.39436 9.66744L9.38476 11.405ZM11.1336 9.53925C11.4871 8.78606 11.6531 7.9578 11.6531 7.07386H9.65305C9.65305 7.70413 9.53585 8.2362 9.3231 8.68944L11.1336 9.53925ZM11.6531 7.07386C11.6531 6.19015 11.4872 5.36334 11.1319 4.61413L9.32479 5.4711C9.53578 5.91601 9.65305 6.44337 9.65305 7.07386H11.6531ZM11.1355 4.62178C10.7613 3.81519 10.1535 3.19385 9.35857 2.76098L8.40208 4.51743C8.85055 4.76164 9.14141 5.07591 9.3212 5.46345L11.1355 4.62178ZM9.36523 2.76464C8.54359 2.30907 7.53268 2.12216 6.40589 2.12216V4.12216C7.33498 4.12216 7.97369 4.27994 8.39542 4.51377L9.36523 2.76464ZM6.40589 2.12216H2.38033V4.12216H6.40589V2.12216ZM1.38033 3.12216V20H3.38033V3.12216H1.38033ZM2.38033 19H0.0905541V21H2.38033V19ZM15.4403 20V21H16.1465L16.3827 20.3345L15.4403 20ZM13.0398 20L12.1011 19.6553L11.6073 21H13.0398V20ZM19.983 1.09091V0.0909085H19.2849L19.0442 0.746223L19.983 1.09091ZM22.3466 1.09091L23.2853 0.746223L23.0447 0.0909085H22.3466V1.09091ZM29.2898 20V21H30.7222L30.2285 19.6553L29.2898 20ZM26.8892 20L25.9468 20.3345L26.1831 21H26.8892V20ZM21.2386 4.08239L22.181 3.74785L21.9448 3.08239H21.2386V4.08239ZM21.0909 4.08239V3.08239H20.3848L20.1485 3.74785L21.0909 4.08239ZM16.3267 12.6136V11.6136H15.3267V12.6136H16.3267ZM26.0028 12.6136H27.0028V11.6136H26.0028V12.6136ZM26.0028 14.6449V15.6449H27.0028V14.6449H26.0028ZM16.3267 14.6449H15.3267V15.6449H16.3267V14.6449ZM15.4403 19H13.0398V21H15.4403V19ZM13.9785 20.3447L20.9217 1.43559L19.0442 0.746223L12.1011 19.6553L13.9785 20.3447ZM19.983 2.09091H22.3466V0.0909085H19.983V2.09091ZM21.4079 1.43559L28.3511 20.3447L30.2285 19.6553L23.2853 0.746223L21.4079 1.43559ZM29.2898 19H26.8892V21H29.2898V19ZM27.8316 19.6655L22.181 3.74785L20.2963 4.41692L25.9468 20.3345L27.8316 19.6655ZM21.2386 3.08239H21.0909V5.08239H21.2386V3.08239ZM20.1485 3.74785L14.498 19.6655L16.3827 20.3345L22.0333 4.41692L20.1485 3.74785ZM16.3267 13.6136H26.0028V11.6136H16.3267V13.6136ZM25.0028 12.6136V14.6449H27.0028V12.6136H25.0028ZM26.0028 13.6449H16.3267V15.6449H26.0028V13.6449ZM17.3267 14.6449V12.6136H15.3267V14.6449H17.3267ZM32.2351 20H31.2351V21H32.2351V20ZM32.2351 1.09091V0.0909085H31.2351V1.09091H32.2351ZM42.2621 1.89418L41.7678 2.76349L41.7745 2.76726L42.2621 1.89418ZM44.3672 4.04545L43.474 4.4951L43.474 4.4951L44.3672 4.04545ZM44.3672 10.1115L43.4727 9.66428L43.4703 9.66915L44.3672 10.1115ZM42.2805 12.2905L42.7748 13.1598L42.7791 13.1573L42.2805 12.2905ZM34.0817 13.0938H33.0817V14.0938H34.0817V13.0938ZM34.0817 11.0625V10.0625H33.0817V11.0625H34.0817ZM41.0341 10.5362L40.5389 9.66744L40.5389 9.66744L41.0341 10.5362ZM42.3729 9.11435L41.4676 8.68943L41.4657 8.69351L42.3729 9.11435ZM42.3729 5.04261L41.4657 5.46346L41.4693 5.4711L42.3729 5.04261ZM41.0249 3.6392L40.5399 4.51379L40.5466 4.51743L41.0249 3.6392ZM34.5249 3.12216V2.12216H33.5249V3.12216H34.5249ZM34.5249 20V21H35.5249V20H34.5249ZM33.2351 20V1.09091H31.2351V20H33.2351ZM32.2351 2.09091H38.6243V0.0909085H32.2351V2.09091ZM38.6243 2.09091C39.9956 2.09091 41.0222 2.33951 41.7678 2.76347L42.7564 1.02489C41.6184 0.37782 40.2198 0.0909085 38.6243 0.0909085V2.09091ZM41.7745 2.76726C42.5611 3.20652 43.1149 3.78178 43.474 4.4951L45.2604 3.59581C44.7085 2.49947 43.8589 1.64054 42.7496 1.02109L41.7745 2.76726ZM43.474 4.4951C43.8525 5.24695 44.0504 6.10008 44.0504 7.07386H46.0504C46.0504 5.81943 45.7929 4.65362 45.2604 3.59581L43.474 4.4951ZM44.0504 7.07386C44.0504 8.04755 43.8525 8.90484 43.4728 9.66429L45.2616 10.5587C45.7929 9.4962 46.0504 8.3284 46.0504 7.07386H44.0504ZM43.4703 9.66915C43.1149 10.3897 42.5644 10.9736 41.782 11.4236L42.7791 13.1573C43.8802 12.524 44.7208 11.6553 45.264 10.5539L43.4703 9.66915ZM41.7862 11.4212C41.0396 11.8458 40.0185 12.0938 38.6612 12.0938V14.0938C40.2461 14.0938 41.638 13.8062 42.7748 13.1598L41.7862 11.4212ZM38.6612 12.0938H34.0817V14.0938H38.6612V12.0938ZM35.0817 13.0938V11.0625H33.0817V13.0938H35.0817ZM34.0817 12.0625H38.5874V10.0625H34.0817V12.0625ZM38.5874 12.0625C39.7058 12.0625 40.7114 11.8712 41.5293 11.405L40.5389 9.66744C40.1257 9.90296 39.5001 10.0625 38.5874 10.0625V12.0625ZM41.5293 11.405C42.3108 10.9596 42.9088 10.3354 43.28 9.53518L41.4657 8.69351C41.283 9.08744 40.9885 9.41118 40.5389 9.66744L41.5293 11.405ZM43.2781 9.53925C43.6316 8.78606 43.7976 7.9578 43.7976 7.07386H41.7976C41.7976 7.70413 41.6804 8.2362 41.4676 8.68944L43.2781 9.53925ZM43.7976 7.07386C43.7976 6.19015 43.6317 5.36334 43.2764 4.61413L41.4693 5.4711C41.6803 5.91601 41.7976 6.44337 41.7976 7.07386H43.7976ZM43.28 4.62178C42.9058 3.81519 42.298 3.19385 41.5031 2.76098L40.5466 4.51743C40.9951 4.76164 41.2859 5.07591 41.4657 5.46345L43.28 4.62178ZM41.5098 2.76464C40.6881 2.30907 39.6772 2.12216 38.5504 2.12216V4.12216C39.4795 4.12216 40.1182 4.27994 40.54 4.51377L41.5098 2.76464ZM38.5504 2.12216H34.5249V4.12216H38.5504V2.12216ZM33.5249 3.12216V20H35.5249V3.12216H33.5249ZM34.5249 19H32.2351V21H34.5249V19ZM48.739 20H47.739V21H48.739V20ZM48.739 1.09091V0.0909085H47.739V1.09091H48.739ZM60.1509 1.09091H61.1509V0.0909085H60.1509V1.09091ZM60.1509 3.12216V4.12216H61.1509V3.12216H60.1509ZM51.0288 3.12216V2.12216H50.0288V3.12216H51.0288ZM51.0288 9.51136H50.0288V10.5114H51.0288V9.51136ZM59.56 9.51136H60.56V8.51136H59.56V9.51136ZM59.56 11.5426V12.5426H60.56V11.5426H59.56ZM51.0288 11.5426V10.5426H50.0288V11.5426H51.0288ZM51.0288 17.9688H50.0288V18.9688H51.0288V17.9688ZM60.2987 17.9688H61.2987V16.9688H60.2987V17.9688ZM60.2987 20V21H61.2987V20H60.2987ZM49.739 20V1.09091H47.739V20H49.739ZM48.739 2.09091H60.1509V0.0909085H48.739V2.09091ZM59.1509 1.09091V3.12216H61.1509V1.09091H59.1509ZM60.1509 2.12216H51.0288V4.12216H60.1509V2.12216ZM50.0288 3.12216V9.51136H52.0288V3.12216H50.0288ZM51.0288 10.5114H59.56V8.51136H51.0288V10.5114ZM58.56 9.51136V11.5426H60.56V9.51136H58.56ZM59.56 10.5426H51.0288V12.5426H59.56V10.5426ZM50.0288 11.5426V17.9688H52.0288V11.5426H50.0288ZM51.0288 18.9688H60.2987V16.9688H51.0288V18.9688ZM59.2987 17.9688V20H61.2987V17.9688H59.2987ZM60.2987 19H48.739V21H60.2987V19ZM64.2781 20H63.2781V21H64.2781V20ZM64.2781 1.09091V0.0909085H63.2781V1.09091H64.2781ZM74.305 1.84801L73.835 2.73069L73.8395 2.73305L74.305 1.84801ZM76.4102 3.90696L75.5233 4.3691L75.5233 4.3691L76.4102 3.90696ZM76.4102 9.85298L75.5261 9.38567L75.5261 9.38568L76.4102 9.85298ZM74.3143 11.8842L74.7731 12.7728L74.7776 12.7704L74.3143 11.8842ZM65.5337 12.6136H64.5337V13.6136H65.5337V12.6136ZM65.5337 10.5455V9.54545H64.5337V10.5455H65.5337ZM73.0678 10.1023L72.6386 9.19907L72.6351 9.20075L73.0678 10.1023ZM74.4158 8.84659L73.5275 8.38744L73.5255 8.3913L74.4158 8.84659ZM73.0586 3.59304L72.6078 4.48572L72.6149 4.48923L73.0586 3.59304ZM66.5678 3.12216V2.12216H65.5678V3.12216H66.5678ZM66.5678 20V21H67.5678V20H66.5678ZM73.1786 11.5057L74.0556 11.0252L73.771 10.5057H73.1786V11.5057ZM77.832 20V21H79.5201L78.7091 19.5195L77.832 20ZM75.1729 20L74.2927 20.4746L74.576 21H75.1729V20ZM70.5934 11.5057V10.5057H68.9182L69.7132 11.9802L70.5934 11.5057ZM65.2781 20V1.09091H63.2781V20H65.2781ZM64.2781 2.09091H70.6673V0.0909085H64.2781V2.09091ZM70.6673 2.09091C72.0391 2.09091 73.0759 2.32644 73.835 2.73068L74.775 0.965341C73.6384 0.360108 72.25 0.0909085 70.6673 0.0909085V2.09091ZM73.8395 2.73305C74.6236 3.14547 75.1702 3.69137 75.5233 4.3691L77.297 3.44482C76.7392 2.37444 75.8823 1.54771 74.7706 0.962968L73.8395 2.73305ZM75.5233 4.3691C75.8953 5.08277 76.0934 5.9148 76.0934 6.8892H78.0934C78.0934 5.63539 77.836 4.47926 77.297 3.44482L75.5233 4.3691ZM76.0934 6.8892C76.0934 7.86392 75.8952 8.68737 75.5261 9.38567L77.2943 10.3203C77.8361 9.29511 78.0934 8.14271 78.0934 6.8892H76.0934ZM75.5261 9.38568C75.1738 10.0522 74.6302 10.5906 73.8509 10.9981L74.7776 12.7704C75.8818 12.193 76.7356 11.3772 77.2943 10.3203L75.5261 9.38568ZM73.8555 10.9957C73.0992 11.3862 72.0672 11.6136 70.7042 11.6136V13.6136C72.2711 13.6136 73.6458 13.3548 74.7731 12.7728L73.8555 10.9957ZM70.7042 11.6136H65.5337V13.6136H70.7042V11.6136ZM66.5337 12.6136V10.5455H64.5337V12.6136H66.5337ZM65.5337 11.5455H70.6303V9.54545H65.5337V11.5455ZM70.6303 11.5455C71.7238 11.5455 72.7011 11.3875 73.5006 11.0038L72.6351 9.20075C72.2035 9.40791 71.5558 9.54545 70.6303 9.54545V11.5455ZM73.4971 11.0055C74.2901 10.6286 74.916 10.0649 75.3062 9.30188L73.5255 8.3913C73.3617 8.71157 73.0889 8.98508 72.6386 9.19908L73.4971 11.0055ZM75.3042 9.30574C75.6756 8.58724 75.8406 7.77024 75.8406 6.8892H73.8406C73.8406 7.52237 73.7224 8.01029 73.5275 8.38744L75.3042 9.30574ZM75.8406 6.8892C75.8406 6.00698 75.6752 5.18669 75.3103 4.45691L73.5214 5.35133C73.7228 5.75412 73.8406 6.25723 73.8406 6.8892H75.8406ZM75.3103 4.45691C74.9203 3.67705 74.2993 3.09143 73.5023 2.69684L72.6149 4.48923C73.0612 4.71018 73.3451 4.99861 73.5214 5.35133L75.3103 4.45691ZM73.5093 2.70039C72.698 2.29069 71.7042 2.12216 70.5934 2.12216V4.12216C71.5262 4.12216 72.1758 4.26755 72.6078 4.48569L73.5093 2.70039ZM70.5934 2.12216H66.5678V4.12216H70.5934V2.12216ZM65.5678 3.12216V20H67.5678V3.12216H65.5678ZM66.5678 19H64.2781V21H66.5678V19ZM72.3016 11.9861L76.955 20.4805L78.7091 19.5195L74.0556 11.0252L72.3016 11.9861ZM77.832 19H75.1729V21H77.832V19ZM76.0532 19.5254L71.4736 11.0311L69.7132 11.9802L74.2927 20.4746L76.0532 19.5254ZM70.5934 12.5057H73.1786V10.5057H70.5934V12.5057ZM91.2498 5.81818L90.2568 5.93578L90.3613 6.81818H91.2498V5.81818ZM89.9018 3.6392L89.3532 4.47525L89.3532 4.47525L89.9018 3.6392ZM84.8052 3.26989L84.4091 2.35167L84.4058 2.3531L84.8052 3.26989ZM83.3464 4.38707L82.5426 3.79207L82.5377 3.7989L83.3464 4.38707ZM83.1895 7.30469L82.3552 7.85612L82.3607 7.86432L82.3662 7.87242L83.1895 7.30469ZM84.1312 8.20028L83.5987 9.0468L83.6087 9.05288L84.1312 8.20028ZM85.3315 8.78196L84.9864 9.72062L84.9987 9.72495L85.3315 8.78196ZM86.4856 9.14204L86.7456 8.17641L86.7401 8.17497L86.4856 9.14204ZM88.4061 9.65909L88.1461 10.6247L88.1522 10.6263L88.4061 9.65909ZM90.0495 10.1946L89.6963 11.1301L89.6995 11.1313L90.0495 10.1946ZM91.7946 11.1271L91.215 11.9422L91.2254 11.9493L91.7946 11.1271ZM93.1795 12.6229L94.0385 12.1109L94.0385 12.1109L93.1795 12.6229ZM92.921 17.6364L92.0822 17.0918L92.0794 17.0962L92.921 17.6364ZM90.5943 19.603L90.1646 18.7L90.1624 18.701L90.5943 19.603ZM83.3741 19.6768L82.9685 20.5909L82.9706 20.5918L83.3741 19.6768ZM81.0474 17.8487L80.2345 18.4312L80.2376 18.4354L81.0474 17.8487ZM80.0964 15.125V14.125H79.0224L79.099 15.1962L80.0964 15.125ZM82.46 15.125L83.4564 15.0391L83.3776 14.125H82.46V15.125ZM83.1802 16.8977L82.4349 17.5646L82.4443 17.5748L83.1802 16.8977ZM84.7868 17.9318L84.4544 18.875L84.4652 18.8787L84.7868 17.9318ZM89.2463 17.8395L89.6233 18.7657L89.6303 18.7628L89.2463 17.8395ZM90.899 16.6392L91.6817 17.2616L91.6853 17.257L90.899 16.6392ZM90.9821 13.2969L91.7288 12.6318L91.7288 12.6318L90.9821 13.2969ZM89.5971 12.3366L89.202 13.2553L89.202 13.2553L89.5971 12.3366ZM87.7413 11.6903L87.4666 12.6519L87.4737 12.6539L87.7413 11.6903ZM85.4146 11.0256L85.1383 11.9866L85.1399 11.9871L85.4146 11.0256ZM81.9061 9.20668L81.2313 9.9447L81.2313 9.94471L81.9061 9.20668ZM81.4721 3.34375L80.6639 2.75483L80.6631 2.75595L81.4721 3.34375ZM83.7988 1.49716L84.2087 2.4093L84.2113 2.40811L83.7988 1.49716ZM90.3265 1.48793L89.9078 2.39607L89.9127 2.39829L90.3265 1.48793ZM92.5794 3.26065L91.7746 3.85431L91.7778 3.85855L92.5794 3.26065ZM93.4657 5.81818V6.81818H94.4985L94.4652 5.78594L93.4657 5.81818ZM92.2429 5.70058C92.0973 4.47152 91.4853 3.48224 90.4505 2.80316L89.3532 4.47525C89.8941 4.83026 90.1807 5.29363 90.2568 5.93578L92.2429 5.70058ZM90.4505 2.80316C89.4675 2.15809 88.3002 1.86364 87.0027 1.86364V3.86364C87.9949 3.86364 88.7603 4.08622 89.3532 4.47525L90.4505 2.80316ZM87.0027 1.86364C86.0591 1.86364 85.1868 2.01622 84.4091 2.35167L85.2013 4.1881C85.6794 3.98188 86.272 3.86364 87.0027 3.86364V1.86364ZM84.4058 2.3531C83.6479 2.68328 83.0126 3.15732 82.5427 3.7921L84.1502 4.98205C84.382 4.66891 84.7192 4.39815 85.2046 4.18667L84.4058 2.3531ZM82.5377 3.7989C82.0648 4.44907 81.8294 5.19491 81.8294 6.00284H83.8294C83.8294 5.60433 83.9386 5.273 84.1551 4.97524L82.5377 3.7989ZM81.8294 6.00284C81.8294 6.67163 81.9906 7.30455 82.3552 7.85612L84.0237 6.75326C83.9082 6.57849 83.8294 6.34352 83.8294 6.00284H81.8294ZM82.3662 7.87242C82.6925 8.34553 83.107 8.73738 83.5988 9.04674L84.6637 7.35382C84.3922 7.18307 84.1788 6.97786 84.0127 6.73695L82.3662 7.87242ZM83.6087 9.05288C84.0463 9.3211 84.5058 9.54383 84.9864 9.72054L85.6766 7.84338C85.3201 7.71232 84.9794 7.54727 84.6538 7.34768L83.6087 9.05288ZM84.9987 9.72495C85.4376 9.87985 85.8488 10.0085 86.2311 10.1091L86.7401 8.17497C86.4207 8.09092 86.0626 7.97952 85.6643 7.83897L84.9987 9.72495ZM86.2256 10.1077L88.1461 10.6247L88.666 8.69347L86.7456 8.17643L86.2256 10.1077ZM88.1522 10.6263C88.6035 10.7448 89.1175 10.9116 89.6963 11.1301L90.4028 9.25906C89.7751 9.0221 89.1935 8.83191 88.66 8.69186L88.1522 10.6263ZM89.6995 11.1313C90.2238 11.3273 90.7287 11.5963 91.215 11.9421L92.3741 10.3122C91.7524 9.87011 91.094 9.51741 90.3996 9.25788L89.6995 11.1313ZM91.2254 11.9493C91.6629 12.2522 92.0275 12.6432 92.3205 13.1348L94.0385 12.1109C93.6052 11.3838 93.0465 10.7776 92.3638 10.3049L91.2254 11.9493ZM92.3205 13.1348C92.571 13.5551 92.7243 14.1158 92.7243 14.8665H94.7243C94.7243 13.8444 94.5144 12.9094 94.0385 12.1109L92.3205 13.1348ZM92.7243 14.8665C92.7243 15.7029 92.5083 16.4357 92.0823 17.0918L93.7597 18.1809C94.4047 17.1874 94.7243 16.0736 94.7243 14.8665H92.7243ZM92.0794 17.0962C91.6656 17.741 91.0445 18.2813 90.1646 18.7L91.024 20.5059C92.1877 19.9521 93.1177 19.1813 93.7626 18.1765L92.0794 17.0962ZM90.1624 18.701C89.3148 19.1069 88.2368 19.3324 86.8919 19.3324V21.3324C88.4522 21.3324 89.8425 21.0716 91.0261 20.5049L90.1624 18.701ZM86.8919 19.3324C85.6429 19.3324 84.6139 19.1307 83.7776 18.7619L82.9706 20.5918C84.1163 21.0971 85.4325 21.3324 86.8919 21.3324V19.3324ZM83.7797 18.7628C82.937 18.3888 82.3084 17.8848 81.8572 17.2621L80.2376 18.4354C80.919 19.3761 81.8416 20.0908 82.9685 20.5909L83.7797 18.7628ZM81.8603 17.2663C81.4161 16.6464 81.1556 15.9186 81.0939 15.0538L79.099 15.1962C79.1849 16.3996 79.5585 17.4876 80.2345 18.4312L81.8603 17.2663ZM80.0964 16.125H82.46V14.125H80.0964V16.125ZM81.4637 15.2109C81.5411 16.1087 81.8521 16.913 82.435 17.5645L83.9255 16.2309C83.6713 15.9468 83.5021 15.5693 83.4564 15.0391L81.4637 15.2109ZM82.4443 17.5748C82.9898 18.1677 83.6684 18.598 84.4544 18.875L85.1191 16.9887C84.6125 16.8101 84.2201 16.5511 83.9162 16.2207L82.4443 17.5748ZM84.4652 18.8787C85.2301 19.1385 86.0413 19.2642 86.8919 19.2642V17.2642C86.2405 17.2642 85.6483 17.1683 85.1083 16.9849L84.4652 18.8787ZM86.8919 19.2642C87.8743 19.2642 88.7901 19.1049 89.6233 18.7657L88.8692 16.9133C88.3114 17.1404 87.6576 17.2642 86.8919 17.2642V19.2642ZM89.6303 18.7628C90.4578 18.4186 91.1549 17.9241 91.6817 17.2616L90.1163 16.0168C89.8306 16.3761 89.4259 16.6817 88.8622 16.9162L89.6303 18.7628ZM91.6853 17.257C92.237 16.5548 92.5083 15.7313 92.5083 14.8295H90.5083C90.5083 15.3065 90.3734 15.6895 90.1127 16.0214L91.6853 17.257ZM92.5083 14.8295C92.5083 14.0056 92.2728 13.2425 91.7288 12.6318L90.2353 13.962C90.3931 14.1391 90.5083 14.3978 90.5083 14.8295H92.5083ZM91.7288 12.6318C91.2647 12.1106 90.6749 11.7116 89.9922 11.418L89.202 13.2553C89.6642 13.4541 89.9978 13.6953 90.2353 13.962L91.7288 12.6318ZM89.9922 11.418C89.3742 11.1522 88.7126 10.9223 88.0089 10.7268L87.4737 12.6539C88.0995 12.8277 88.6751 13.0287 89.202 13.2553L89.9922 11.418ZM88.016 10.7288L85.6893 10.064L85.1399 11.9871L87.4666 12.6519L88.016 10.7288ZM85.6909 10.0645C84.3169 9.66946 83.2986 9.12487 82.5808 8.46865L81.2313 9.94471C82.237 10.8642 83.5578 11.5322 85.1383 11.9866L85.6909 10.0645ZM82.5808 8.46865C81.9465 7.8887 81.6135 7.13564 81.6135 6.11364H79.6135C79.6135 7.63992 80.1421 8.94889 81.2313 9.9447L82.5808 8.46865ZM81.6135 6.11364C81.6135 5.2467 81.8438 4.53352 82.2811 3.93155L80.6631 2.75595C79.9556 3.72974 79.6135 4.86315 79.6135 6.11364H81.6135ZM82.2803 3.93267C82.7479 3.29102 83.3809 2.7813 84.2087 2.4093L83.3889 0.585021C82.2717 1.08707 81.3536 1.80842 80.6639 2.75483L82.2803 3.93267ZM84.2113 2.40811C85.0453 2.03045 85.9948 1.83239 87.0765 1.83239V-0.167614C85.7454 -0.167614 84.5097 0.0775049 83.3863 0.586204L84.2113 2.40811ZM87.0765 1.83239C88.1748 1.83239 89.1114 2.02888 89.9078 2.39606L90.7452 0.579793C89.6458 0.0729214 88.4158 -0.167614 87.0765 -0.167614V1.83239ZM89.9127 2.39829C90.7238 2.76696 91.3332 3.25586 91.7746 3.8543L93.3841 2.667C92.7176 1.76355 91.8251 1.07063 90.7403 0.577559L89.9127 2.39829ZM91.7778 3.85855C92.2132 4.44233 92.4419 5.09657 92.4663 5.85042L94.4652 5.78594C94.428 4.63165 94.0658 3.58087 93.3809 2.66276L91.7778 3.85855ZM93.4657 4.81818H91.2498V6.81818H93.4657V4.81818Z" fill="black"/>
<defs>
<filter id="filter0_i_113_470" x="0.0905762" y="0.832397" width="93.6338" height="23.5" filterUnits="userSpaceOnUse" color-interpolation-filters="sRGB">
<feFlood flood-opacity="0" result="BackgroundImageFix"/>
<feBlend mode="normal" in="SourceGraphic" in2="BackgroundImageFix" result="shape"/>
<feColorMatrix in="SourceAlpha" type="matrix" values="0 0 0 0 0 0 0 0 0 0 0 0 0 0 0 0 0 0 127 0" result="hardAlpha"/>
<feOffset dy="4"/>
<feGaussianBlur stdDeviation="2"/>
<feComposite in2="hardAlpha" operator="arithmetic" k2="-1" k3="1"/>
<feColorMatrix type="matrix" values="0 0 0 0 0 0 0 0 0 0 0 0 0 0 0 0 0 0 0.25 0"/>
<feBlend mode="normal" in2="shape" result="effect1_innerShadow_113_470"/>
</filter>
</defs>
</svg>
