<svg width="20" height="20" viewBox="0 0 26 29" fill="none" xmlns="http://www.w3.org/2000/svg">
<path d="M24.9167 4.33333H19.5V3.25C19.5 2.38805 19.1576 1.5614 18.5481 0.951903C17.9386 0.34241 17.112 0 16.25 0H9.75C8.88805 0 8.0614 0.34241 7.4519 0.951903C6.84241 1.5614 6.5 2.38805 6.5 3.25V4.33333H1.08333C0.796016 4.33333 0.520466 4.44747 0.317301 4.65063C0.114137 4.8538 0 5.12935 0 5.41667C0 5.70398 0.114137 5.97953 0.317301 6.1827C0.520466 6.38586 0.796016 6.5 1.08333 6.5H2.16667V26C2.16667 26.5746 2.39494 27.1257 2.80127 27.5321C3.2076 27.9384 3.7587 28.1667 4.33333 28.1667H21.6667C22.2413 28.1667 22.7924 27.9384 23.1987 27.5321C23.6051 27.1257 23.8333 26.5746 23.8333 26V6.5H24.9167C25.204 6.5 25.4795 6.38586 25.6827 6.1827C25.8859 5.97953 26 5.70398 26 5.41667C26 5.12935 25.8859 4.8538 25.6827 4.65063C25.4795 4.44747 25.204 4.33333 24.9167 4.33333ZM8.66667 3.25C8.66667 2.96268 8.7808 2.68713 8.98397 2.48397C9.18713 2.2808 9.46268 2.16667 9.75 2.16667H16.25C16.5373 2.16667 16.8129 2.2808 17.016 2.48397C17.2192 2.68713 17.3333 2.96268 17.3333 3.25V4.33333H8.66667V3.25ZM21.6667 26H4.33333V6.5H21.6667V26ZM10.8333 11.9167V20.5833C10.8333 20.8706 10.7192 21.1462 10.516 21.3494C10.3129 21.5525 10.0373 21.6667 9.75 21.6667C9.46268 21.6667 9.18713 21.5525 8.98397 21.3494C8.7808 21.1462 8.66667 20.8706 8.66667 20.5833V11.9167C8.66667 11.6293 8.7808 11.3538 8.98397 11.1506C9.18713 10.9475 9.46268 10.8333 9.75 10.8333C10.0373 10.8333 10.3129 10.9475 10.516 11.1506C10.7192 11.3538 10.8333 11.6293 10.8333 11.9167ZM17.3333 11.9167V20.5833C17.3333 20.8706 17.2192 21.1462 17.016 21.3494C16.8129 21.5525 16.5373 21.6667 16.25 21.6667C15.9627 21.6667 15.6871 21.5525 15.484 21.3494C15.2808 21.1462 15.1667 20.8706 15.1667 20.5833V11.9167C15.1667 11.6293 15.2808 11.3538 15.484 11.1506C15.6871 10.9475 15.9627 10.8333 16.25 10.8333C16.5373 10.8333 16.8129 10.9475 17.016 11.1506C17.2192 11.3538 17.3333 11.6293 17.3333 11.9167Z" fill="#999999"/>
</svg>
