<svg width="14" height="10" viewBox="0 0 17 10" fill="none" xmlns="http://www.w3.org/2000/svg">
    <path d="M8.5 8.29096L15.9137 0.207615C15.9734 0.141064 16.0444 0.0884494 16.1224 0.0528167C16.2004 0.0171839 16.2839 -0.000759538 16.3682 2.46361e-05C16.4524 0.00080881 16.5357 0.0203045 16.6131 0.0573846C16.6906 0.0944647 16.7608 0.148393 16.8195 0.216048C16.8783 0.283702 16.9244 0.36374 16.9554 0.45153C16.9864 0.53932 17.0015 0.633119 16.9999 0.727498C16.9983 0.821877 16.98 0.914963 16.9461 1.00137C16.9121 1.08777 16.8633 1.16578 16.8023 1.23088L8.94429 9.79778C8.82535 9.92745 8.66595 10 8.5 10C8.33405 10 8.17465 9.92745 8.05571 9.79778L0.197737 1.23088C0.136732 1.16578 0.0878544 1.08777 0.0539322 1.00137C0.02001 0.914963 0.00171852 0.821877 0.000116348 0.727498C-0.00148773 0.633119 0.013628 0.53932 0.04459 0.45153C0.075552 0.36374 0.121744 0.283702 0.180494 0.216048C0.239244 0.148393 0.309385 0.0944647 0.386858 0.0573846C0.464331 0.0203045 0.547598 0.00080881 0.63184 2.46361e-05C0.716082 -0.000759538 0.799625 0.0171839 0.877638 0.0528167C0.95565 0.0884494 1.02658 0.141064 1.08633 0.207615L8.5 8.29096Z"
          fill="#A7A7A7"/>
</svg>
