<svg width="11" height="18" viewBox="0 0 11 18" fill="none" xmlns="http://www.w3.org/2000/svg">
    <path d="M2.20904 9L10.2924 16.4137C10.3589 16.4734 10.4116 16.5444 10.4472 16.6224C10.4828 16.7004 10.5008 16.7839 10.5 16.8682C10.4992 16.9524 10.4797 17.0357 10.4426 17.1131C10.4055 17.1906 10.3516 17.2608 10.284 17.3195C10.2163 17.3783 10.1363 17.4244 10.0485 17.4554C9.96068 17.4864 9.86688 17.5015 9.7725 17.4999C9.67812 17.4983 9.58504 17.48 9.49863 17.4461C9.41223 17.4121 9.33422 17.3633 9.26912 17.3023L0.702215 9.44429C0.572549 9.32535 0.5 9.16595 0.5 9C0.5 8.83405 0.572549 8.67465 0.702215 8.55571L9.26912 0.697737C9.33422 0.636731 9.41223 0.587854 9.49863 0.553932C9.58504 0.52001 9.67812 0.50172 9.7725 0.500116C9.86688 0.498513 9.96068 0.513628 10.0485 0.54459C10.1363 0.575552 10.2163 0.621744 10.284 0.680494C10.3516 0.739244 10.4055 0.809385 10.4426 0.886858C10.4797 0.964331 10.4992 1.0476 10.5 1.13184C10.5008 1.21608 10.4828 1.29963 10.4472 1.37764C10.4116 1.45565 10.3589 1.52658 10.2924 1.58633L2.20904 9Z"
          fill="#A7A7A7"/>
</svg>
