<svg width="8" height="17" viewBox="0 0 10 17" fill="none" xmlns="http://www.w3.org/2000/svg">
    <path d="M8.29096 8.5L0.207615 1.08633C0.141064 1.02658 0.0884494 0.95565 0.0528167 0.877638C0.0171839 0.799626 -0.000759538 0.716081 2.46361e-05 0.63184C0.00080881 0.547598 0.0203045 0.464331 0.0573846 0.386858C0.0944647 0.309386 0.148393 0.239245 0.216048 0.180495C0.283702 0.121745 0.36374 0.0755522 0.45153 0.0445903C0.53932 0.0136284 0.633119 -0.00148818 0.727498 0.00011545C0.821877 0.00171908 0.914963 0.0200111 1.00137 0.0539328C1.08777 0.0878545 1.16578 0.136732 1.23088 0.197738L9.79778 8.05571C9.92745 8.17465 10 8.33405 10 8.5C10 8.66595 9.92745 8.82535 9.79778 8.94429L1.23088 16.8023C1.16578 16.8633 1.08777 16.9121 1.00137 16.9461C0.914963 16.98 0.821877 16.9983 0.727498 16.9999C0.633119 17.0015 0.53932 16.9864 0.45153 16.9554C0.36374 16.9244 0.283702 16.8783 0.216048 16.8195C0.148393 16.7608 0.0944647 16.6906 0.0573846 16.6131C0.0203045 16.5357 0.00080881 16.4524 2.46361e-05 16.3682C-0.000759538 16.2839 0.0171839 16.2004 0.0528167 16.1224C0.0884494 16.0444 0.141064 15.9734 0.207615 15.9137L8.29096 8.5Z"
          fill="#A7A7A7"/>
</svg>
