<svg width="14" height="10" viewBox="0 0 17 10" fill="none" xmlns="http://www.w3.org/2000/svg">
    <path d="M8.5 1.70904L1.08633 9.79238C1.02658 9.85894 0.95565 9.91155 0.877638 9.94718C0.799626 9.98282 0.716081 10.0008 0.63184 9.99998C0.547598 9.99919 0.464331 9.9797 0.386858 9.94262C0.309386 9.90554 0.239245 9.85161 0.180495 9.78395C0.121745 9.7163 0.0755522 9.63626 0.0445903 9.54847C0.0136284 9.46068 -0.00148818 9.36688 0.00011545 9.2725C0.00171908 9.17812 0.0200111 9.08504 0.0539328 8.99863C0.0878545 8.91223 0.136732 8.83422 0.197738 8.76912L8.05571 0.202215C8.17465 0.0725485 8.33405 0 8.5 0C8.66595 0 8.82535 0.0725485 8.94429 0.202215L16.8023 8.76912C16.8633 8.83422 16.9121 8.91223 16.9461 8.99863C16.98 9.08504 16.9983 9.17812 16.9999 9.2725C17.0015 9.36688 16.9864 9.46068 16.9554 9.54847C16.9244 9.63626 16.8783 9.7163 16.8195 9.78395C16.7608 9.85161 16.6906 9.90554 16.6131 9.94262C16.5357 9.9797 16.4524 9.99919 16.3682 9.99998C16.2839 10.0008 16.2004 9.98282 16.1224 9.94718C16.0444 9.91155 15.9734 9.85894 15.9137 9.79238L8.5 1.70904Z"
          fill="#A7A7A7"/>
</svg>

