<svg width="30" height="30" viewBox="0 0 30 30" fill="none" xmlns="http://www.w3.org/2000/svg">
    <path d="M25.3125 8.43751H15.3879L12.1875 5.23712C12.014 5.06225 11.8075 4.92361 11.58 4.82926C11.3524 4.73491 11.1084 4.68672 10.8621 4.68751H4.6875C4.19022 4.68751 3.71331 4.88505 3.36167 5.23668C3.01004 5.58831 2.8125 6.06523 2.8125 6.56251V23.5102C2.81312 23.988 3.00321 24.4461 3.34108 24.7839C3.67895 25.1218 4.13702 25.3119 4.61484 25.3125H25.4168C25.8862 25.3119 26.3363 25.1251 26.6682 24.7932C27.0001 24.4613 27.1869 24.0112 27.1875 23.5418V10.3125C27.1875 9.81523 26.99 9.33832 26.6383 8.98668C26.2867 8.63505 25.8098 8.43751 25.3125 8.43751ZM4.6875 6.56251H10.8621L12.7371 8.43751H4.6875V6.56251ZM25.3125 23.4375H4.6875V10.3125H25.3125V23.4375Z"
          fill="white"/>
</svg>
