<svg width="30" height="28" viewBox="0 0 30 28" fill="none" xmlns="http://www.w3.org/2000/svg">
    <path d="M20.6555 21.0675C20.4485 20.0345 20.0641 19.083 19.5022 18.2132C18.9404 17.3433 18.2454 16.5912 17.4174 15.9569C16.5895 15.3226 15.658 14.8242 14.623 14.4618C13.588 14.0993 12.4988 13.9181 11.3553 13.9181C10.4879 13.9181 9.65007 14.0223 8.84179 14.2307C8.03351 14.4391 7.27945 14.7291 6.5796 15.1006C5.87974 15.4721 5.24396 15.9252 4.67225 16.4598C4.10054 16.9944 3.60769 17.5834 3.19369 18.2268C2.77969 18.8701 2.45934 19.5633 2.23263 20.3063C2.00591 21.0493 1.89256 21.8195 1.89256 22.6169H0C0 21.5568 0.172499 20.5193 0.517496 19.5044C0.862494 18.4895 1.36028 17.5517 2.01084 16.6909C2.66141 15.83 3.43519 15.0644 4.33218 14.3938C5.22918 13.7233 6.22967 13.2113 7.33366 12.8579C6.78167 12.5317 6.28881 12.1557 5.8551 11.7298C5.42139 11.3039 5.04682 10.8373 4.73139 10.3299C4.41597 9.82242 4.18433 9.28327 4.03647 8.71241C3.88861 8.14155 3.80483 7.5571 3.78512 6.95906C3.78512 5.99856 3.98226 5.09697 4.37654 4.25427C4.77082 3.41157 5.30803 2.67308 5.98817 2.03879C6.66831 1.4045 7.47166 0.906127 8.39823 0.543676C9.32479 0.181225 10.3105 0 11.3553 0C12.4002 0 13.381 0.181225 14.2977 0.543676C15.2144 0.906127 16.0177 1.39997 16.7077 2.02519C17.3977 2.65042 17.9399 3.38892 18.3342 4.24068C18.7284 5.09244 18.9256 5.99856 18.9256 6.95906C18.9256 7.5571 18.8467 8.14155 18.689 8.71241C18.5313 9.28327 18.2947 9.82242 17.9793 10.3299C17.6639 10.8373 17.2942 11.3039 16.8704 11.7298C16.4465 12.1557 15.9487 12.5317 15.377 12.8579C16.3529 13.2023 17.2548 13.6553 18.0828 14.2171C18.9108 14.7789 19.6353 15.4268 20.2563 16.1608C20.8773 16.8947 21.3948 17.6967 21.8088 18.5665C22.2228 19.4364 22.4889 20.3516 22.6072 21.3121L21.7644 22.1004L20.6555 21.0675ZM5.67767 6.95906C5.67767 7.68396 5.82553 8.35903 6.12124 8.98425C6.41695 9.60948 6.82109 10.1622 7.33366 10.6425C7.84623 11.1227 8.44751 11.4988 9.13751 11.7706C9.8275 12.0424 10.5668 12.1784 11.3553 12.1784C12.1341 12.1784 12.8684 12.0424 13.5584 11.7706C14.2484 11.4988 14.8497 11.1272 15.3622 10.6561C15.8748 10.1849 16.2839 9.63213 16.5895 8.99784C16.895 8.36356 17.0429 7.68396 17.033 6.95906C17.033 6.24322 16.8852 5.56815 16.5895 4.93386C16.2937 4.29957 15.8896 3.74684 15.377 3.27565C14.8645 2.80446 14.2583 2.42842 13.5584 2.14752C12.8586 1.86662 12.1242 1.7307 11.3553 1.73976C10.5668 1.73976 9.83243 1.87568 9.15229 2.14752C8.47215 2.41936 7.87087 2.79087 7.34845 3.26206C6.82602 3.73324 6.41695 4.29051 6.12124 4.93386C5.82553 5.57721 5.67767 6.25228 5.67767 6.95906ZM30 19.749L21.7644 27.3333L17.7871 23.6635L19.1178 22.4402L21.7644 24.8596L28.6693 18.5258L30 19.749Z"
          fill="white"/>
</svg>
