<svg width="30" height="33" viewBox="0 0 30 33" fill="none" xmlns="http://www.w3.org/2000/svg">
    <path d="M20.8594 4.0625C18.4395 4.0625 16.3207 5.18984 15 7.09541C13.6793 5.18984 11.5605 4.0625 9.14062 4.0625C7.21433 4.06485 5.36755 4.89488 4.00545 6.37049C2.64335 7.84609 1.87717 9.84677 1.875 11.9336C1.875 20.8203 14.0379 28.0135 14.5559 28.3105C14.6924 28.3901 14.845 28.4317 15 28.4317C15.155 28.4317 15.3076 28.3901 15.4441 28.3105C15.9621 28.0135 28.125 20.8203 28.125 11.9336C28.1228 9.84677 27.3566 7.84609 25.9946 6.37049C24.6325 4.89488 22.7857 4.06485 20.8594 4.0625ZM15 26.2539C12.8602 24.9031 3.75 18.7497 3.75 11.9336C3.75186 10.3854 4.3204 8.90117 5.33093 7.80643C6.34147 6.71168 7.71151 6.09577 9.14062 6.09375C11.4199 6.09375 13.3336 7.40898 14.1328 9.52148C14.2034 9.70776 14.3236 9.86708 14.478 9.97921C14.6324 10.0913 14.8141 10.1512 15 10.1512C15.1859 10.1512 15.3676 10.0913 15.522 9.97921C15.6764 9.86708 15.7966 9.70776 15.8672 9.52148C16.6664 7.40518 18.5801 6.09375 20.8594 6.09375C22.2885 6.09577 23.6585 6.71168 24.6691 7.80643C25.6796 8.90117 26.2481 10.3854 26.25 11.9336C26.25 18.7395 17.1375 24.9019 15 26.2539Z"
          fill="white"/>
</svg>
