<svg width="30" height="30" viewBox="0 0 30 30" fill="none" xmlns="http://www.w3.org/2000/svg">
<path d="M15 4.0625C15.2486 4.0625 15.4871 4.16127 15.6629 4.33709C15.8387 4.5129 15.9375 4.75136 15.9375 5C15.9375 5.24864 15.8387 5.4871 15.6629 5.66291C15.4871 5.83873 15.2486 5.9375 15 5.9375C12.5965 5.9375 10.2914 6.8923 8.59185 8.59185C6.8923 10.2914 5.9375 12.5965 5.9375 15C5.9375 17.4035 6.8923 19.7086 8.59185 21.4082C10.2914 23.1077 12.5965 24.0625 15 24.0625C15.2486 24.0625 15.4871 24.1613 15.6629 24.3371C15.8387 24.5129 15.9375 24.7514 15.9375 25C15.9375 25.2486 15.8387 25.4871 15.6629 25.6629C15.4871 25.8387 15.2486 25.9375 15 25.9375C12.0992 25.9375 9.3172 24.7852 7.26602 22.734C5.21484 20.6828 4.0625 17.9008 4.0625 15C4.0625 12.0992 5.21484 9.3172 7.26602 7.26602C9.3172 5.21484 12.0992 4.0625 15 4.0625Z" fill="black"/>
<path d="M20.5875 11.9126C20.4219 11.7348 20.3317 11.4998 20.336 11.2569C20.3403 11.014 20.4387 10.7823 20.6105 10.6105C20.7822 10.4388 21.014 10.3404 21.2568 10.3361C21.4997 10.3318 21.7348 10.422 21.9125 10.5876L25.6625 14.3376C25.8381 14.5133 25.9367 14.7516 25.9367 15.0001C25.9367 15.2485 25.8381 15.4868 25.6625 15.6626L21.9125 19.4126C21.8267 19.5047 21.7232 19.5785 21.6082 19.6298C21.4932 19.681 21.369 19.7086 21.2432 19.7108C21.1173 19.713 20.9922 19.6899 20.8755 19.6427C20.7588 19.5956 20.6527 19.5254 20.5637 19.4363C20.4747 19.3473 20.4045 19.2413 20.3573 19.1245C20.3102 19.0078 20.287 18.8828 20.2893 18.7569C20.2915 18.631 20.319 18.5069 20.3703 18.3919C20.4215 18.2769 20.4954 18.1734 20.5875 18.0876L22.7375 15.9376H12.5C12.2514 15.9376 12.0129 15.8388 11.8371 15.663C11.6613 15.4871 11.5625 15.2487 11.5625 15.0001C11.5625 14.7514 11.6613 14.513 11.8371 14.3371C12.0129 14.1613 12.2514 14.0626 12.5 14.0626H22.7375L20.5875 11.9126Z" fill="black"/>
</svg>
