<svg width="24" height="24" viewBox="0 0 30 28" fill="none" xmlns="http://www.w3.org/2000/svg">
<path d="M24.63 14.0001L14.015 3.81856C13.9276 3.73651 13.8585 3.63909 13.8117 3.53196C13.7649 3.42482 13.7413 3.31008 13.7424 3.19439C13.7434 3.0787 13.769 2.96435 13.8177 2.85795C13.8664 2.75155 13.9372 2.65522 14.026 2.57454C14.1149 2.49386 14.22 2.43042 14.3353 2.3879C14.4506 2.34538 14.5737 2.32462 14.6977 2.32682C14.8216 2.32902 14.9439 2.35414 15.0573 2.40073C15.1708 2.44731 15.2732 2.51444 15.3587 2.59822L26.6087 13.3899C26.779 13.5532 26.8743 13.7722 26.8743 14.0001C26.8743 14.228 26.779 14.4469 26.6087 14.6102L15.3587 25.4019C15.2732 25.4857 15.1708 25.5528 15.0573 25.5994C14.9439 25.646 14.8216 25.6711 14.6977 25.6733C14.5737 25.6755 14.4506 25.6547 14.3353 25.6122C14.22 25.5697 14.1149 25.5063 14.026 25.4256C13.9372 25.3449 13.8664 25.2486 13.8177 25.1422C13.769 25.0358 13.7434 24.9214 13.7424 24.8057C13.7413 24.69 13.7649 24.5753 13.8117 24.4682C13.8585 24.361 13.9276 24.2636 14.015 24.1816L24.63 14.0001Z" fill="#A3A3A3"/>
</svg>
