<svg width="24" height="24" viewBox="0 0 30 28" fill="none" xmlns="http://www.w3.org/2000/svg">
<path d="M5.37003 13.9999L15.985 24.1814C16.0724 24.2635 16.1415 24.3609 16.1883 24.468C16.2351 24.5752 16.2587 24.6899 16.2576 24.8056C16.2566 24.9213 16.231 25.0357 16.1823 25.1421C16.1336 25.2484 16.0628 25.3448 15.974 25.4255C15.8851 25.5061 15.78 25.5696 15.6647 25.6121C15.5494 25.6546 15.4263 25.6754 15.3023 25.6732C15.1784 25.671 15.0561 25.6459 14.9427 25.5993C14.8292 25.5527 14.7268 25.4856 14.6413 25.4018L3.39128 14.6101C3.221 14.4468 3.12573 14.2278 3.12573 13.9999C3.12573 13.772 3.221 13.5531 3.39128 13.3898L14.6413 2.59811C14.7268 2.51433 14.8292 2.4472 14.9427 2.40062C15.0561 2.35403 15.1784 2.32891 15.3023 2.32671C15.4263 2.3245 15.5494 2.34526 15.6647 2.38778C15.78 2.43031 15.8851 2.49374 15.974 2.57443C16.0628 2.65511 16.1336 2.75144 16.1823 2.85784C16.231 2.96423 16.2566 3.07859 16.2576 3.19428C16.2587 3.30997 16.2351 3.42471 16.1883 3.53184C16.1415 3.63898 16.0724 3.73639 15.985 3.81844L5.37003 13.9999Z" fill="#A3A3A3"/>
</svg>
