<svg width="120" height="120" viewBox="0 0 120 120" fill="none" xmlns="http://www.w3.org/2000/svg">
    <circle cx="60" cy="60" r="60" fill="#DCDCDC"/>
    <path d="M71.4375 47.4688H49.5625C47.7503 47.4688 46.2812 48.9378 46.2812 50.75V68.25C46.2812 70.0622 47.7503 71.5312 49.5625 71.5312H71.4375C73.2497 71.5312 74.7188 70.0622 74.7188 68.25V50.75C74.7188 48.9378 73.2497 47.4688 71.4375 47.4688Z"
          stroke="#7A7A7A" stroke-width="2.1875" stroke-linejoin="round"/>
    <path d="M65.9688 56.2188C67.1769 56.2188 68.1562 55.2394 68.1562 54.0312C68.1562 52.8231 67.1769 51.8438 65.9688 51.8438C64.7606 51.8438 63.7812 52.8231 63.7812 54.0312C63.7812 55.2394 64.7606 56.2188 65.9688 56.2188Z"
          stroke="#7A7A7A" stroke-width="2.1875" stroke-miterlimit="10"/>
    <path d="M63.7812 64.9543L57.5838 58.7685C57.1894 58.3742 56.6594 58.1454 56.102 58.1289C55.5446 58.1124 55.0019 58.3094 54.5849 58.6796L46.2812 66.0624M58.3125 71.5312L66.7439 63.0997C67.1295 62.7133 67.6456 62.4851 68.1909 62.4598C68.7362 62.4345 69.2712 62.614 69.6909 62.963L74.7188 67.1562"
          stroke="#7A7A7A" stroke-width="2.1875" stroke-linecap="round" stroke-linejoin="round"/>
</svg>
