<svg width="22" height="22" viewBox="0 0 42 42" fill="none" xmlns="http://www.w3.org/2000/svg">
    <path d="M21 42C32.5983 42 42 32.5983 42 21C42 20.0277 40.5426 19.866 40.0407 20.6997C38.9702 22.4728 37.5103 23.9791 35.7714 25.1044C34.0326 26.2297 32.0605 26.9445 30.0044 27.1948C27.9484 27.445 25.8624 27.2241 23.9044 26.5488C21.9464 25.8734 20.1678 24.7614 18.7032 23.2968C17.2386 21.8322 16.1266 20.0536 15.4512 18.0956C14.7759 16.1376 14.555 14.0516 14.8052 11.9956C15.0555 9.93952 15.7703 7.96741 16.8956 6.22857C18.0209 4.48974 19.5272 3.02978 21.3003 1.9593C22.134 1.4553 21.9723 0 21 0C9.4017 0 0 9.4017 0 21C0 32.5983 9.4017 42 21 42Z"
          fill="#F2E3AF"/>
</svg>
