<svg width="22" height="22" viewBox="0 0 38 38" fill="none" xmlns="http://www.w3.org/2000/svg">
<path fill-rule="evenodd" clip-rule="evenodd" d="M29.2917 1.97919C29.6066 1.97919 29.9087 2.1043 30.1314 2.327C30.3541 2.5497 30.4792 2.85174 30.4792 3.16669V7.52085H34.8333C35.1483 7.52085 35.4503 7.64596 35.673 7.86866C35.8957 8.09136 36.0208 8.39341 36.0208 8.70835C36.0208 9.0233 35.8957 9.32534 35.673 9.54804C35.4503 9.77074 35.1483 9.89585 34.8333 9.89585H30.4792V14.25C30.4792 14.565 30.3541 14.867 30.1314 15.0897C29.9087 15.3124 29.6066 15.4375 29.2917 15.4375C28.9767 15.4375 28.6747 15.3124 28.452 15.0897C28.2293 14.867 28.1042 14.565 28.1042 14.25V9.89585H23.75C23.4351 9.89585 23.133 9.77074 22.9103 9.54804C22.6876 9.32534 22.5625 9.0233 22.5625 8.70835C22.5625 8.39341 22.6876 8.09136 22.9103 7.86866C23.133 7.64596 23.4351 7.52085 23.75 7.52085H28.1042V3.16669C28.1042 2.85174 28.2293 2.5497 28.452 2.327C28.6747 2.1043 28.9767 1.97919 29.2917 1.97919Z" fill="#888888"/>
<path fill-rule="evenodd" clip-rule="evenodd" d="M19 1.97919H18.9097C15.2538 1.97919 12.3895 1.97919 10.1539 2.28002C7.86754 2.58719 6.06254 3.23002 4.64546 4.64552C3.22838 6.0626 2.58713 7.8676 2.27996 10.1555C1.97913 12.3896 1.97913 15.2539 1.97913 18.9098V19.0903C1.97913 22.7462 1.97913 25.6104 2.27996 27.8461C2.58713 30.1324 3.22996 31.9374 4.64546 33.3545C6.06254 34.7716 7.86754 35.4128 10.1555 35.72C12.3895 36.0209 15.2538 36.0209 18.9097 36.0209H19.0902C22.7461 36.0209 25.6104 36.0209 27.846 35.72C30.1324 35.4128 31.9374 34.77 33.3545 33.3545C34.7715 31.9374 35.4128 30.1324 35.72 27.8445C36.0208 25.6104 36.0208 22.7462 36.0208 19.0903V19C36.0208 18.6851 35.8957 18.383 35.673 18.1603C35.4503 17.9376 35.1482 17.8125 34.8333 17.8125C34.5183 17.8125 34.2163 17.9376 33.9936 18.1603C33.7709 18.383 33.6458 18.6851 33.6458 19C33.6458 22.7652 33.6426 25.4695 33.3671 27.5279L33.3323 27.7685L28.9401 23.8149C27.9409 22.9159 26.6662 22.3825 25.3245 22.302C23.9828 22.2214 22.6534 22.5985 21.5539 23.3716L21.082 23.7041C20.7007 23.9715 20.2374 24.0958 19.7734 24.0553C19.3095 24.0148 18.8747 23.8119 18.5455 23.4824L11.753 16.6899C10.8866 15.8238 9.72333 15.3194 8.49889 15.2788C7.27444 15.2382 6.08035 15.6646 5.15846 16.4714L4.35571 17.1729C4.36363 14.3355 4.40321 12.1806 4.63279 10.4722C4.90513 8.4471 5.42446 7.22635 6.32538 6.32385C7.22788 5.42294 8.44704 4.90519 10.4721 4.63285C12.5305 4.35735 15.2348 4.35419 19 4.35419C19.3149 4.35419 19.6169 4.22908 19.8396 4.00638C20.0623 3.78368 20.1875 3.48163 20.1875 3.16669C20.1875 2.85174 20.0623 2.5497 19.8396 2.327C19.6169 2.1043 19.3149 1.97919 19 1.97919ZM4.63279 27.5279C4.90513 29.5529 5.42446 30.7737 6.32538 31.6762C7.22788 32.5771 8.44704 33.0949 10.4721 33.3672C12.5305 33.6427 15.2348 33.6459 19 33.6459C22.7651 33.6459 25.4695 33.6427 27.5278 33.3672C29.5529 33.0949 30.7736 32.5755 31.6761 31.6746C32.0723 31.2773 32.3959 30.8138 32.6325 30.305C32.5694 30.2668 32.5101 30.2228 32.4551 30.1736L27.352 25.5819C26.7528 25.0416 25.9878 24.7208 25.1825 24.6719C24.3771 24.623 23.5789 24.849 22.9187 25.3128L22.4485 25.6453C21.6099 26.2348 20.5903 26.5096 19.569 26.4212C18.5478 26.3329 17.5905 25.8871 16.8656 25.1624L10.0731 18.3699C9.63274 17.9296 9.04145 17.6731 8.41905 17.6526C7.79666 17.632 7.18972 17.8488 6.72121 18.259L4.35413 20.33C4.35888 23.4144 4.39054 25.7213 4.63279 27.5279Z" fill="#888888"/>
</svg>
