<svg width="24" height="24" viewBox="0 0 42 42" fill="none" xmlns="http://www.w3.org/2000/svg">
<path d="M27.5257 6.79706C30.0352 4.27706 33.7067 4.22456 35.7384 6.26506C37.7754 8.30906 37.7212 12.0051 35.2082 14.5251L30.9679 18.7828C30.7292 19.0307 30.5973 19.3624 30.6008 19.7066C30.6042 20.0507 30.7427 20.3797 30.9864 20.6227C31.2301 20.8657 31.5595 21.0033 31.9037 21.0058C32.2479 21.0083 32.5792 20.8755 32.8264 20.6361L37.0684 16.3783C40.4127 13.0201 40.8327 7.65981 37.5987 4.41181C34.3612 1.16206 29.0114 1.58556 25.6637 4.94381L17.1832 13.4611C13.8389 16.8193 13.4189 22.1796 16.6529 25.4258C16.7737 25.5514 16.9183 25.6517 17.0782 25.7209C17.2382 25.79 17.4103 25.8266 17.5846 25.8285C17.7588 25.8304 17.9317 25.7976 18.0932 25.732C18.2546 25.6664 18.4013 25.5693 18.5249 25.4463C18.6484 25.3234 18.7462 25.1771 18.8125 25.016C18.8789 24.8549 18.9125 24.6821 18.9114 24.5079C18.9104 24.3336 18.8746 24.1613 18.8062 24.001C18.7378 23.8407 18.6382 23.6957 18.5132 23.5743C16.4762 21.5303 16.5322 17.8343 19.0434 15.3143L27.5257 6.79706Z" fill="#888888"/>
<path d="M25.3487 16.5726C25.1027 16.3259 24.7688 16.187 24.4204 16.1865C24.0721 16.186 23.7378 16.324 23.4911 16.5699C23.2444 16.8159 23.1055 17.1498 23.105 17.4982C23.1045 17.8466 23.2425 18.1809 23.4884 18.4276C25.5254 20.4716 25.4712 24.1658 22.9582 26.6876L14.4759 35.2031C11.9647 37.7231 8.2932 37.7756 6.26145 35.7351C4.22445 33.6911 4.28045 29.9951 6.7917 27.4751L11.0337 23.2173C11.1554 23.0952 11.2518 22.9503 11.3175 22.7908C11.3832 22.6314 11.4168 22.4606 11.4165 22.2882C11.4162 22.1158 11.3819 21.9451 11.3156 21.786C11.2493 21.6268 11.1523 21.4823 11.0302 21.3606C10.9081 21.2389 10.7631 21.1424 10.6037 21.0768C10.4443 21.0111 10.2735 20.9774 10.1011 20.9778C9.92868 20.9781 9.75802 21.0124 9.59885 21.0787C9.43969 21.1449 9.29514 21.2419 9.17345 21.3641L4.93145 25.6218C1.5872 28.9818 1.1672 34.3403 4.4012 37.5883C7.6387 40.8398 12.9884 40.4146 16.3362 37.0563L24.8184 28.5391C28.1627 25.1826 28.5827 19.8188 25.3487 16.5726Z" fill="#888888"/>
</svg>
