<svg width="24" height="24" viewBox="0 0 24 24" fill="none" xmlns="http://www.w3.org/2000/svg">
<path d="M13.1406 17.6719C13.1406 17.9407 13.0609 18.2036 12.9115 18.4271C12.7622 18.6507 12.5499 18.8249 12.3015 18.9278C12.0531 19.0307 11.7797 19.0576 11.5161 19.0051C11.2524 18.9527 11.0101 18.8232 10.82 18.6331C10.6299 18.443 10.5005 18.2008 10.448 17.9371C10.3955 17.6734 10.4225 17.4001 10.5254 17.1517C10.6282 16.9033 10.8025 16.691 11.026 16.5416C11.2496 16.3922 11.5124 16.3125 11.7813 16.3125C12.1418 16.3125 12.4875 16.4557 12.7425 16.7107C12.9974 16.9656 13.1406 17.3113 13.1406 17.6719ZM11.7813 5.4375C9.28227 5.4375 7.25001 7.26699 7.25001 9.51562V9.96875C7.25001 10.2091 7.34549 10.4396 7.51544 10.6096C7.68539 10.7795 7.9159 10.875 8.15625 10.875C8.39661 10.875 8.62712 10.7795 8.79707 10.6096C8.96703 10.4396 9.0625 10.2091 9.0625 9.96875V9.51562C9.0625 8.26953 10.2825 7.25 11.7813 7.25C13.28 7.25 14.5 8.26953 14.5 9.51562C14.5 10.7617 13.28 11.7812 11.7813 11.7812C11.5409 11.7812 11.3104 11.8767 11.1404 12.0467C10.9705 12.2166 10.875 12.4471 10.875 12.6875V13.5938C10.875 13.8341 10.9705 14.0646 11.1404 14.2346C11.3104 14.4045 11.5409 14.5 11.7813 14.5C12.0216 14.5 12.2521 14.4045 12.4221 14.2346C12.592 14.0646 12.6875 13.8341 12.6875 13.5938V13.5122C14.7538 13.1327 16.3125 11.4845 16.3125 9.51562C16.3125 7.26699 14.2802 5.4375 11.7813 5.4375ZM23.5625 11.7812C23.5625 14.1114 22.8715 16.3891 21.577 18.3266C20.2825 20.264 18.4425 21.774 16.2897 22.6657C14.137 23.5574 11.7682 23.7907 9.48285 23.3361C7.19751 22.8815 5.09829 21.7595 3.45065 20.1119C1.80302 18.4642 0.680961 16.365 0.226379 14.0797C-0.228203 11.7943 0.00510463 9.4255 0.8968 7.27276C1.78849 5.12002 3.29853 3.28004 5.23594 1.9855C7.17336 0.690958 9.45114 0 11.7813 0C14.9048 0.00329855 17.8995 1.24559 20.1082 3.45429C22.3169 5.66299 23.5592 8.65768 23.5625 11.7812ZM21.75 11.7812C21.75 9.80962 21.1653 7.88226 20.07 6.24291C18.9746 4.60356 17.4177 3.32584 15.5961 2.57133C13.7746 1.81681 11.7702 1.6194 9.83645 2.00405C7.9027 2.38869 6.12644 3.33812 4.73228 4.73228C3.33813 6.12643 2.3887 7.9027 2.00405 9.83644C1.61941 11.7702 1.81682 13.7746 2.57133 15.5961C3.32584 17.4177 4.60356 18.9746 6.24291 20.07C7.88227 21.1653 9.80962 21.75 11.7813 21.75C14.4242 21.747 16.9581 20.6958 18.8269 18.8269C20.6958 16.9581 21.747 14.4242 21.75 11.7812Z" fill="#8E8E8E"/>
</svg>
