<svg width="22" height="26" viewBox="0 0 34 34" fill="none" xmlns="http://www.w3.org/2000/svg">
    <path d="M17 3.09091C20.6889 3.09091 24.2267 4.55632 26.8352 7.16478C29.4437 9.77324 30.9091 13.3111 30.9091 17C30.9091 20.7044 29.4641 24.0674 27.1026 26.5602L26.3237 27.3824L28.2818 30.9091H17C15.1734 30.9091 13.3647 30.5493 11.6772 29.8503C9.98969 29.1513 8.45636 28.1268 7.16479 26.8352C5.87321 25.5436 4.84867 24.0103 4.14967 22.3228C3.45067 20.6352 3.09091 18.8266 3.09091 17C3.09091 15.1734 3.45067 13.3647 4.14967 11.6772C4.84867 9.98969 5.87321 8.45636 7.16479 7.16478C8.45636 5.87321 9.98969 4.84867 11.6772 4.14967C13.3647 3.45068 15.1734 3.09091 17 3.09091ZM34 17C34 7.61136 26.3886 0 17 0C7.61136 0 -6.71901e-07 7.61136 -6.71901e-07 17C-6.71901e-07 26.3886 7.61136 34 17 34H33.5363L30.1054 27.8274C32.6274 24.7834 34.0052 20.953 34 17ZM23.1818 12.3636H10.8182V15.4545H23.1818V12.3636ZM23.1818 18.5454H13.9091V21.6364H23.1818V18.5454Z"
          fill="black"/>
</svg>
