<svg width="33" height="43" viewBox="0 0 40 43" fill="none" xmlns="http://www.w3.org/2000/svg">
    <path d="M27.8125 5.375C24.5859 5.375 21.7609 6.86656 20 9.38777C18.2391 6.86656 15.4141 5.375 12.1875 5.375C9.6191 5.37811 7.15673 6.4763 5.3406 8.42865C3.52447 10.381 2.50289 13.028 2.5 15.7891C2.5 27.5469 18.7172 37.064 19.4078 37.457C19.5898 37.5623 19.7933 37.6174 20 37.6174C20.2067 37.6174 20.4102 37.5623 20.5922 37.457C21.2828 37.064 37.5 27.5469 37.5 15.7891C37.4971 13.028 36.4755 10.381 34.6594 8.42865C32.8433 6.4763 30.3809 5.37811 27.8125 5.375ZM20 34.7359C17.1469 32.9487 5 24.8073 5 15.7891C5.00248 13.7407 5.76053 11.7769 7.10791 10.3285C8.45529 8.88007 10.282 8.06517 12.1875 8.0625C15.2266 8.0625 17.7781 9.80266 18.8438 12.5977C18.9379 12.8441 19.0981 13.0549 19.304 13.2033C19.5099 13.3516 19.7521 13.4308 20 13.4308C20.2479 13.4308 20.4901 13.3516 20.696 13.2033C20.9019 13.0549 21.0621 12.8441 21.1562 12.5977C22.2219 9.79762 24.7734 8.0625 27.8125 8.0625C29.718 8.06517 31.5447 8.88007 32.8921 10.3285C34.2395 11.7769 34.9975 13.7407 35 15.7891C35 24.7939 22.85 32.9471 20 34.7359Z"
          fill="black"/>
    <path d="M20 34.7359C17.1469 32.9487 5 24.8073 5 15.7891C5.00248 13.7407 5.76053 11.7769 7.10791 10.3285C8.45529 8.88007 10.282 8.06517 12.1875 8.0625C15.2266 8.0625 17.7781 9.80266 18.8438 12.5977C18.9379 12.8441 19.0981 13.0549 19.304 13.2033C19.5099 13.3516 19.7521 13.4308 20 13.4308C20.2479 13.4308 20.4901 13.3516 20.696 13.2033C20.9019 13.0549 21.0621 12.8441 21.1562 12.5977C22.2219 9.79762 24.7734 8.0625 27.8125 8.0625C29.718 8.06517 31.5447 8.88007 32.8921 10.3285C34.2395 11.7769 34.9975 13.7407 35 15.7891C35 24.7939 22.85 32.9471 20 34.7359Z"
          fill="#FF3A3A"/>
</svg>
